<?xml version="1.0" ?><!DOCTYPE svg  PUBLIC '-//W3C//DTD SVG 1.1//EN'  'http://www.w3.org/Graphics/SVG/1.1/DTD/svg11.dtd'><svg enable-background="new 0 0 64 64" height="64px" id="Layer_1" version="1.1" viewBox="0 0 64 64" width="64px" xml:space="preserve" xmlns="http://www.w3.org/2000/svg" xmlns:xlink="http://www.w3.org/1999/xlink"><g><path d="M51.749,38.944c0.024-0.675,0.05-1.374-0.047-2.092c-0.212-1.565-0.22-3.19-0.228-4.762   c-0.004-0.756-0.008-1.513-0.033-2.267c-0.015-0.474-0.063-0.946-0.111-1.42c-0.049-0.48-0.099-0.962-0.107-1.445   c-0.023-1.264-0.606-2.325-1.684-3.064c-0.564-0.394-1.213-0.451-1.734-0.498c-0.117-0.011-0.234-0.021-0.354-0.036   c-0.895-0.107-1.782-0.098-2.643-0.091c-0.472,0.004-0.943,0.009-1.414-0.007c-0.846-0.027-1.69-0.097-2.535-0.165   c-1.11-0.09-2.238-0.147-3.399-0.183c-1.95,0.004-3.753,0.102-5.473,0.283c0.283-0.277,0.495-0.705,0.544-1.377   c0.134-0.246,0.122-0.555-0.046-0.792c-0.003-0.023-0.005-0.048-0.008-0.071c-0.016-0.134-0.037-0.316-0.145-0.576   c-0.171-0.41-0.571-1.362-1.71-1.161c-0.438,0.08-1.601,0.292-1.679,1.64l-0.02,0.226c-0.015,0.148-0.029,0.301-0.031,0.445   c-0.01,0.699,0.17,1.242,0.537,1.614c0.107,0.109,0.261,0.227,0.462,0.322c-0.072,0.011-0.147,0.019-0.219,0.03   c-0.324,0.053-0.656,0.073-0.989,0.095c-0.27,0.018-0.541,0.035-0.811,0.066c-1.217,0.141-2.319,0.639-3.277,1.48   c-0.983,0.869-1.046,2.034-1.097,2.971c-0.009,0.16-0.017,0.319-0.03,0.478c-0.112,1.353,0.048,2.646,0.253,4.078   c0.111,0.775,0.076,1.554,0.039,2.378c-0.02,0.423-0.039,0.847-0.038,1.271c0.001,1.014-0.087,2.052-0.172,3.057   c-0.078,0.926-0.159,1.883-0.174,2.841c-0.018,1.186,0.588,2.248,1.663,2.916c0.66,0.409,1.566,0.277,2.283,0.117   c0.314-0.071,0.644-0.102,0.993-0.134c0.36-0.033,0.72-0.068,1.077-0.142c0.158-0.032,0.25-0.025,0.28-0.036   c0,0.044-0.008,0.123-0.047,0.24c-0.152,0.454-0.217,0.896-0.279,1.323c-0.049,0.336-0.096,0.653-0.181,0.945   c-0.113,0.382-0.097,0.786,0.043,1.171c-0.002,0.004-0.004,0.009-0.006,0.013c-0.171,0.381-0.436,0.727-0.716,1.094   c-0.113,0.149-0.227,0.298-0.336,0.45c-0.241,0.337-0.164,0.806,0.173,1.047c0.132,0.094,0.285,0.14,0.436,0.14   c0.233,0,0.464-0.109,0.61-0.313c0.1-0.14,0.205-0.276,0.309-0.413c0.319-0.418,0.649-0.851,0.875-1.362   c0.029-0.027,0.143-0.083,0.218-0.12c0.206-0.102,0.488-0.24,0.723-0.505c0.405-0.459,0.837-0.895,1.269-1.331   c0.652-0.658,1.326-1.339,1.912-2.097c0.631-0.818,1.41-0.909,2.462-0.79c2.987,0.339,5.946,0.495,8.8,0.454   c0.885-0.013,1.822-0.044,2.727-0.277c1.867-0.484,3.256-2.297,3.096-4.04C51.709,40.036,51.729,39.506,51.749,38.944z    M30.417,21.233c0.01-0.098,0.02-0.194,0.024-0.286c0.005-0.093,0.024-0.124,0.023-0.124c0.019-0.02,0.09-0.06,0.373-0.114   c0.038,0.076,0.086,0.19,0.133,0.302c0.011,0.039,0.012,0.079,0.017,0.118c0.01,0.09,0.023,0.207,0.06,0.337   c-0.002,0.022-0.003,0.046-0.004,0.069c-0.004,0.468-0.086,0.588-0.083,0.589c-0.006,0.003-0.058,0.026-0.204,0.026   c-0.125,0-0.222-0.021-0.257-0.058c-0.052-0.052-0.11-0.225-0.105-0.539C30.395,21.449,30.406,21.34,30.417,21.233z M50.264,40.699   c0.104,1.115-0.96,2.187-1.978,2.45c-0.742,0.192-1.578,0.219-2.37,0.229c-2.795,0.037-5.688-0.113-8.611-0.444   c-1.184-0.134-2.688-0.1-3.818,1.363c-0.53,0.686-1.142,1.304-1.791,1.958c-0.319,0.323-0.639,0.646-0.948,0.977   c0.031-0.175,0.056-0.348,0.081-0.518c0.056-0.379,0.108-0.737,0.218-1.065c0.306-0.911-0.015-1.461-0.233-1.707   c-0.18-0.203-0.553-0.497-1.206-0.497c-0.156,0-0.328,0.017-0.518,0.056c-0.302,0.062-0.607,0.088-0.913,0.116   c-0.382,0.035-0.778,0.072-1.186,0.165c-0.911,0.203-1.139,0.086-1.161,0.072c-0.443-0.275-0.968-0.78-0.955-1.619   c0.014-0.906,0.093-1.838,0.169-2.738c0.087-1.035,0.178-2.106,0.177-3.185c0-0.4,0.018-0.8,0.036-1.2   c0.039-0.857,0.08-1.743-0.051-2.659c-0.192-1.339-0.342-2.545-0.243-3.742c0.014-0.171,0.023-0.345,0.033-0.52   c0.049-0.914,0.104-1.497,0.59-1.927c0.732-0.644,1.537-1.009,2.457-1.115c0.245-0.028,0.491-0.044,0.736-0.06   c0.382-0.024,0.763-0.051,1.133-0.111c2.318-0.374,4.788-0.559,7.55-0.563c0.01,0,0.019,0,0.027,0c1.07,0,2.177,0.09,3.247,0.178   c0.869,0.07,1.739,0.141,2.608,0.17c0.492,0.015,0.985,0.012,1.477,0.007c0.85-0.006,1.652-0.015,2.447,0.08   c0.131,0.017,0.266,0.028,0.4,0.041c0.398,0.035,0.774,0.069,1.016,0.237c0.684,0.47,1.023,1.077,1.037,1.858   c0.01,0.525,0.063,1.049,0.115,1.57c0.045,0.438,0.09,0.877,0.104,1.315c0.024,0.741,0.028,1.484,0.032,2.227   c0.008,1.619,0.016,3.293,0.241,4.955c0.08,0.591,0.058,1.195,0.034,1.836C50.229,39.474,50.207,40.077,50.264,40.699z"/><path d="M32.244,31.975c-1.023-0.065-1.697,0.476-1.868,1.541c-0.014,0.084-0.042,0.259-0.068,0.315   c-0.698,1.465,0.218,2.176,0.643,2.412c0.263,0.147,0.554,0.213,0.846,0.213c0.695,0,1.402-0.369,1.793-0.88   c0.375-0.487,0.477-1.027,0.559-1.462l0.055-0.273c0.015-0.067,0.02-0.135,0.016-0.201c0.003-0.045,0.001-0.091-0.005-0.137   C34.029,32.106,32.78,32.015,32.244,31.975z M32.675,33.837c-0.065,0.348-0.117,0.622-0.274,0.825   c-0.19,0.25-0.6,0.337-0.719,0.271c-0.102-0.057-0.125-0.095-0.126-0.095c0-0.003-0.02-0.099,0.106-0.363   c0.12-0.251,0.163-0.523,0.201-0.761c0.027-0.171,0.067-0.229,0.065-0.23c0.017-0.008,0.081-0.022,0.208-0.014   c0.12,0.009,0.486,0.036,0.555,0.098c0,0,0.013,0.017,0.024,0.065L32.675,33.837z"/><path d="M37.586,31.841c-0.082-0.023-0.163-0.034-0.244-0.027c-0.055-0.003-0.109,0-0.164,0.01   c-1.135,0.19-1.953,0.881-2.246,1.894c-0.278,0.953,0.021,1.784,0.803,2.222c0.182,0.102,0.613,0.344,1.137,0.344   c0.247,0,0.514-0.054,0.783-0.201c1.168-0.638,1.37-1.465,1.334-2.052C38.951,33.393,38.88,32.207,37.586,31.841z M36.936,34.765   c-0.096,0.05-0.307-0.045-0.469-0.135c-0.092-0.052-0.205-0.115-0.096-0.495c0.123-0.42,0.432-0.69,0.922-0.806   c0.114,0.069,0.165,0.229,0.199,0.797C37.496,34.206,37.512,34.45,36.936,34.765z"/><path d="M20.889,19.701c-0.213-0.057-0.431-0.015-0.604,0.097c-0.056,0.02-0.11,0.046-0.162,0.08   c-0.732,0.481-1.117,1.223-1.142,2.205c-0.024,0.928,0.524,1.627,1.508,1.919c0.132,0.039,0.296,0.07,0.476,0.07   c0.465,0,1.04-0.212,1.462-1.071c0.261-0.535,0.57-1.332,0.229-2.081C22.311,20.16,21.482,19.86,20.889,19.701z M21.08,22.34   c-0.099,0.201-0.164,0.242-0.167,0.224c-0.441-0.131-0.437-0.296-0.433-0.441c0.013-0.48,0.15-0.723,0.321-0.879   c0.399,0.144,0.477,0.27,0.49,0.298C21.305,21.572,21.363,21.762,21.08,22.34z"/><path d="M22.127,30.99c-0.518,0.438-0.965,0.931-1.397,1.406c-0.501,0.553-0.984,1.074-1.54,1.485   c0.453-0.943,0.903-1.956,1.123-3.098c0.122-0.649-0.088-1.036-0.286-1.246c-0.153-0.162-0.497-0.416-1.104-0.347   c-0.794,0.101-1.645,0.078-2.76-0.073c-0.712-0.098-0.712-0.098-0.896-0.69c-0.289-0.937-0.377-1.991-0.264-3.135   c0.077-0.789,0.052-1.602-0.072-2.351c-0.317-1.913-0.61-4.174-0.375-6.435c0.12-1.162,0.393-1.766,0.974-2.155   c1.308-0.875,2.707-1.431,4.16-1.653c1.75-0.271,3.583-0.114,5.435-0.21c1.671-0.084,3.386-0.019,5.044,0.047   c1.045,0.04,2.091,0.081,3.136,0.087c0.799,0.006,1.584,0.104,2.416,0.209c0.341,0.043,0.682,0.086,1.021,0.122   c0.229,0.024,0.522,0.117,0.772,0.616c0.266,0.535,0.391,0.995,0.38,1.406c-0.024,1.01,0.038,2.017,0.1,2.99   c0.069,1.109,0.136,2.158,0.083,3.22l-0.004,0.109c-0.011,0.228-0.02,0.424-0.083,0.551c-0.185,0.37-0.035,0.82,0.335,1.006   c0.373,0.187,0.822,0.036,1.007-0.336c0.206-0.412,0.225-0.823,0.239-1.154l0.004-0.102c0.057-1.146-0.015-2.286-0.084-3.388   c-0.059-0.941-0.121-1.915-0.097-2.859c0.016-0.662-0.159-1.353-0.538-2.112c-0.534-1.072-1.356-1.374-1.954-1.439   c-0.331-0.035-0.662-0.076-0.993-0.118c-0.838-0.105-1.705-0.214-2.594-0.221c-1.029-0.006-2.058-0.046-3.087-0.086   c-1.692-0.066-3.442-0.134-5.179-0.046c-1.834,0.095-3.688-0.067-5.586,0.226c-1.671,0.256-3.274,0.892-4.766,1.89   c-1.228,0.821-1.514,2.103-1.632,3.247c-0.253,2.438,0.054,4.822,0.387,6.835c0.103,0.621,0.124,1.298,0.059,1.957   c-0.132,1.343-0.023,2.595,0.324,3.724c0.398,1.291,0.978,1.578,2.126,1.735c1.102,0.15,1.987,0.185,2.836,0.11   c-0.21,0.932-0.615,1.813-1.014,2.64l-0.062,0.126c-0.163,0.328-0.386,0.783-0.332,1.322c-0.183,0.172-0.327,0.356-0.443,0.506   l-0.107,0.137c-0.26,0.323-0.208,0.795,0.115,1.055c0.139,0.111,0.304,0.165,0.469,0.165c0.219,0,0.437-0.096,0.585-0.28   l0.122-0.155c0.329-0.423,0.406-0.461,0.559-0.444c0.531,0.064,0.828-0.265,0.875-0.341c0.93-0.552,1.617-1.309,2.28-2.04   c0.417-0.46,0.812-0.895,1.253-1.268c0.316-0.268,0.356-0.741,0.089-1.058C22.918,30.765,22.444,30.726,22.127,30.99z"/><path d="M27.067,20.043c-0.328-0.205-0.714-0.28-1.1-0.208c-0.051,0.01-0.139,0.009-0.209,0.028   c-1.016,0.29-1.634,1.03-1.741,2.082c-0.129,1.247,0.596,1.721,1.039,1.891c0.175,0.067,0.381,0.101,0.6,0.101   c0.686,0,1.493-0.322,1.829-0.904c0.33-0.57,0.399-1.264,0.215-2.118C27.625,20.564,27.394,20.247,27.067,20.043z M26.202,22.259   c-0.096,0.104-0.473,0.212-0.679,0.14c0-0.001-0.037-0.067-0.013-0.301c0.045-0.447,0.23-0.669,0.66-0.791   c0.025-0.008,0.05-0.016,0.074-0.025C26.334,21.729,26.316,22.057,26.202,22.259z"/><path d="M42.555,31.496c-0.034-0.003-0.066-0.004-0.102-0.002c-0.118-0.01-0.24,0.015-0.354,0.067l-1.044,0.481   c-0.547,0.257-0.915,0.682-1.035,1.196c-0.115,0.498,0.018,1.018,0.372,1.462c0.109,0.138,0.237,0.261,0.366,0.383   c0.07,0.065,0.142,0.13,0.203,0.202c0.381,0.447,0.855,0.675,1.357,0.675c0.381,0,0.777-0.132,1.158-0.399l0.13-0.09   c0.481-0.331,1.287-0.884,1.134-1.975C44.578,32.36,43.74,31.594,42.555,31.496z M42.758,34.235l-0.145,0.1   c-0.309,0.214-0.38,0.132-0.512-0.022c-0.098-0.114-0.207-0.219-0.316-0.322c-0.076-0.072-0.155-0.142-0.221-0.225   c-0.068-0.085-0.091-0.154-0.084-0.187c0.01-0.043,0.081-0.117,0.213-0.179l0.856-0.396c0.62,0.102,0.684,0.55,0.705,0.702   C43.273,33.839,43.211,33.924,42.758,34.235z"/></g></svg>