<?xml version="1.0" encoding="iso-8859-1"?>
<!-- Generator: Adobe Illustrator 19.0.0, SVG Export Plug-In . SVG Version: 6.00 Build 0)  -->
<svg version="1.1" id="Layer_1" xmlns="http://www.w3.org/2000/svg" xmlns:xlink="http://www.w3.org/1999/xlink" x="0px" y="0px"
	 viewBox="0 0 290.869 290.869" style="enable-background:new 0 0 290.869 290.869;" xml:space="preserve">
<g>
	<g>
		<g>
			<rect x="117.309" y="157.153" width="9.375" height="9.375"/>
			<rect x="117.309" y="175.903" width="9.375" height="28.125"/>
			<rect x="164.184" y="157.153" width="9.375" height="9.375"/>
			<rect x="164.184" y="175.903" width="9.375" height="28.125"/>
			<rect x="117.309" y="213.403" width="9.375" height="28.125"/>
			<rect x="164.184" y="213.403" width="9.375" height="28.125"/>
			<rect x="75.122" y="63.403" width="9.375" height="28.125"/>
			<rect x="75.122" y="100.903" width="9.375" height="28.125"/>
			<rect x="75.122" y="138.403" width="9.375" height="28.125"/>
			<rect x="75.122" y="175.903" width="9.375" height="28.125"/>
			<rect x="206.372" y="63.403" width="9.375" height="28.125"/>
			<rect x="206.372" y="100.903" width="9.375" height="28.125"/>
			<rect x="206.372" y="138.403" width="9.375" height="28.125"/>
			<rect x="206.372" y="175.903" width="9.375" height="28.125"/>
			<rect x="75.122" y="44.653" width="9.375" height="9.375"/>
			<rect x="206.372" y="44.653" width="9.375" height="9.375"/>
			<rect x="89.184" y="44.653" width="112.5" height="9.375"/>
			<path d="M290.869,260.278l-4.791-186.797l4.669-14.006V49.341h-42.188v10.134l4.669,14.006l-1.542,60.234h-7.814V122.62
				c2.344-1.744,4.688-5.245,4.688-12.342c0-15.272-10.819-23.555-18.75-26.794V30.591H61.059v52.894
				c-7.931,3.239-18.75,11.522-18.75,26.794c0,7.097,2.344,10.603,4.688,12.342v11.095h-7.814l-1.547-60.234l4.673-14.006V49.341
				H0.122v10.134l4.669,14.006L0,260.278H290.869z M281.119,58.716l-3.127,9.375h-16.683l-3.127-9.375H281.119z M277.284,96.216
				l3.005,117.187h-21.267l3.005-117.187H277.284z M262.265,86.841l0.239-9.375h14.302l0.239,9.375H262.265z M258.778,222.778h21.75
				l0.722,28.125h-23.194L258.778,222.778z M61.059,250.903H42.192l-0.722-28.125h19.589V250.903z M61.06,213.403L61.06,213.403
				H41.227l-0.722-28.125H61.06V213.403z M150.122,250.904h-9.375l-0.014-60.802c0.248-0.919,2.33-2.719,4.706-4.172
				c2.344,1.439,4.448,3.23,4.683,4.036V250.904z M178.246,250.903h-18.75v-60.938c0.001-7.27-9.215-12.248-12.037-13.602
				l-2.025-0.97l-2.025,0.97c-2.822,1.355-12.038,6.333-12.038,13.603v60.938h-18.75V147.778h65.625V250.903z M112.622,138.403
				v-0.005c0-12.703,22.045-26.705,32.808-32.255c10.35,5.368,32.817,19.627,32.817,32.26H112.622z M192.309,222.778v28.125h-4.688
				V138.398c0-21.848-36.052-39.75-40.163-41.723l-2.025-0.97l-2.025,0.97c-4.111,1.973-40.163,19.875-40.163,41.723v112.505h-4.688
				v-28.125v-90.234h0.002c0-18.67,32.105-38.845,46.875-46.336c14.77,7.491,46.875,27.661,46.875,46.336V222.778z M192.309,110.011
				c-15.08-18.797-43.233-32.48-44.85-33.258l-2.025-0.97l-2.025,0.97c-1.617,0.773-29.77,14.456-44.85,33.258v-41.92h93.75V110.011
				z M220.434,250.903h-18.75v-28.125h18.75V250.903z M229.809,93.998c4.294,2.63,9.375,7.566,9.375,16.28
				c0,2.962-0.553,4.237-0.825,4.688h-8.55V93.998z M229.809,124.341h4.688v9.375h-4.688V124.341z M229.809,143.09h21.633
				l-0.839,32.813h-20.794V143.09z M229.809,185.278h20.55l-0.722,28.125h-19.828V185.278z M229.809,222.778h19.589l-0.722,28.125
				h-18.867V222.778z M70.434,39.966h150v173.438h-18.75v-80.859V58.716h-112.5v73.828v80.859h-18.75V39.966z M70.434,222.778h18.75
				v28.125h-18.75V222.778z M61.06,124.341v9.375h-4.688v-9.375H61.06z M61.059,93.998v20.967h-8.55
				c-0.272-0.45-0.825-1.725-0.825-4.688C51.684,101.564,56.766,96.628,61.059,93.998z M61.059,143.091v32.813H40.266l-0.844-32.813
				H61.059z M32.681,58.716l-3.127,9.375H12.877L9.75,58.716H32.681z M28.847,96.216l3.005,117.187H10.584l3.005-117.187H28.847z
				 M13.828,86.841l0.239-9.375h14.302l0.239,9.375H13.828z M10.341,222.778h21.75l0.722,28.125H9.619L10.341,222.778z"/>
		</g>
	</g>
</g>
<g>
</g>
<g>
</g>
<g>
</g>
<g>
</g>
<g>
</g>
<g>
</g>
<g>
</g>
<g>
</g>
<g>
</g>
<g>
</g>
<g>
</g>
<g>
</g>
<g>
</g>
<g>
</g>
<g>
</g>
</svg>
