<?xml version="1.0" encoding="UTF-8" standalone="no"?>
<!-- Created with Inkscape (http://www.inkscape.org/) -->

<svg
   version="1.1"
   id="svg1"
   width="688.79236"
   height="360.92371"
   viewBox="0 0 688.79238 360.92371"
   xmlns="http://www.w3.org/2000/svg"
   xmlns:svg="http://www.w3.org/2000/svg">
  <defs
     id="defs1" />
  <g
     id="g1"
     transform="translate(-1468.4115,-283.45837)">
    <g
       id="group-R5"
       transform="translate(768.65396,29.563616)">
      <path
         id="path3"
         d="M 862.69357,328.94377 H 845.7069 c -0.95466,0 -1.728,-0.77067 -1.728,-1.72933 0,-0.952 0.77334,-1.72934 1.728,-1.72934 h 16.98667 c 0.95733,0 1.72933,0.77734 1.72933,1.72934 0,0.95866 -0.772,1.72933 -1.72933,1.72933"
         style="fill:#100f0d;fill-opacity:1;fill-rule:nonzero;stroke:none;stroke-width:0.133333" />
      <path
         id="path4"
         d="m 1121.0589,447.8571 h -16.9853 c -0.9547,0 -1.7254,-0.76933 -1.7254,-1.73067 0,-0.95866 0.7707,-1.72533 1.7254,-1.72533 h 16.9853 c 0.964,0 1.7373,0.76667 1.7373,1.72533 0,0.96134 -0.7733,1.73067 -1.7373,1.73067"
         style="fill:#100f0d;fill-opacity:1;fill-rule:nonzero;stroke:none;stroke-width:0.133333" />
      <path
         id="path5"
         d="m 723.64291,431.27977 h -16.97867 c -0.95867,0 -1.72933,-0.77067 -1.72933,-1.72934 0,-0.95466 0.77066,-1.72933 1.72933,-1.72933 h 16.97867 c 0.95466,0 1.732,0.77467 1.732,1.72933 0,0.95867 -0.77734,1.72934 -1.732,1.72934"
         style="fill:#100f0d;fill-opacity:1;fill-rule:nonzero;stroke:none;stroke-width:0.133333" />
      <path
         id="path6"
         d="m 1009.9642,333.10644 h -16.9813 c -0.95867,0 -1.72933,-0.776 -1.72933,-1.73467 0,-0.95333 0.77066,-1.72933 1.72933,-1.72933 h 16.9813 c 0.956,0 1.7307,0.776 1.7307,1.72933 0,0.95867 -0.7747,1.73467 -1.7307,1.73467"
         style="fill:#100f0d;fill-opacity:1;fill-rule:nonzero;stroke:none;stroke-width:0.133333" />
      <path
         id="path7"
         d="m 1199.0349,576.04376 h -17.1573 c -0.9574,0 -1.728,-0.77066 -1.728,-1.728 0,-0.96 0.7706,-1.73066 1.728,-1.73066 h 17.1573 c 0.9507,0 1.728,0.77066 1.728,1.73066 0,0.95734 -0.7773,1.728 -1.728,1.728"
         style="fill:#100f0d;fill-opacity:1;fill-rule:nonzero;stroke:none;stroke-width:0.133333" />
      <path
         id="path8"
         d="m 800.1749,466.96243 c -0.21333,-0.10666 -0.45333,-0.16 -0.70533,-0.17466 -0.29467,0 -0.57333,0.0533 -0.81467,0.17466 -0.61333,0.26534 -1.05333,0.85334 -1.06533,1.56 l -0.0813,2.05334 -1.65334,41.75866 -0.14666,3.6 -0.08,2.17334 -0.14534,3.61333 -1.70666,43.20133 -0.16134,3.78667 v 0.2 c 0,0.96 0.76,1.75866 1.72134,1.78666 h 0.08 c 0.94666,0 1.74533,-0.73333 1.79866,-1.66666 v -0.0533 l 1.868,-47.25466 0.14667,-3.61333 0.092,-2.17334 0.13467,-3.6 1.65333,-41.75866 0.0787,-1.908 c 0.0413,-0.74534 -0.38534,-1.4 -1.01334,-1.70534 z m 38.49467,54.74667 -0.2,-3.60133 -0.12,-2.17334 -0.2,-3.6 -2.308,-41.75866 -0.10667,-1.908 c -0.0653,-0.95867 -0.89333,-1.70534 -1.812,-1.70534 h -0.0947 c -1,0.052 -1.76,0.90667 -1.70534,1.90667 l 0.092,1.70667 2.32134,41.75866 0.19866,3.6 0.12,2.17334 0.2,3.61333 1.29467,23.41467 0.12,2.17333 c 0.052,0.95867 0.852,1.70533 1.79867,1.70533 h 0.10666 c 0.90667,-0.052 1.61334,-0.74666 1.68,-1.62666 0.028,-0.0787 0.028,-0.18534 0.028,-0.28 z m -3.388,-59.988 -1.612,-27.46533 -0.10667,-1.90667 c -0.0547,-1 -0.77333,-1.66667 -1.908,-1.70667 -1,0.052 -1.74533,0.90534 -1.70666,1.90534 l 0.10666,1.708 1.6,27.46533 0.10667,1.73333 c 0.0667,0.96134 0.85333,1.70667 1.81467,1.70667 h 0.10666 c 0.98667,-0.0653 1.74534,-0.91867 1.692,-1.91867 z m -34.372,-31.07867 h -0.13333 c -0.92134,0 -1.708,0.772 -1.73467,1.73334 l -0.08,1.88 -1.12,27.46533 -0.0653,1.56 c -0.0547,1 0.732,1.84 1.71866,1.88 h 0.0813 c 0.96,0 1.77333,-0.76 1.79866,-1.732 l 0.068,-1.708 1.13334,-27.46533 0.0667,-1.73467 c 0.0533,-1 -0.73333,-1.83867 -1.73333,-1.87867 z m 32.4,-4.69333 -2.01467,-35.64 -0.08,-1.52 c -0.0533,-0.96133 -0.84,-1.69333 -1.79866,-1.69333 h -26.588 c -0.97334,0 -1.77334,0.75867 -1.812,1.72 l -0.068,1.572 -1.492,35.56133 -0.068,1.54534 c -0.0387,1 0.73466,1.82666 1.73466,1.88133 1.03867,-0.0547 1.85334,-0.73334 1.88,-1.73333 l 0.0653,-1.69334 1.49466,-35.25466 h 23.13334 l 1.98666,35.25466 0.0933,1.71867 c 0.052,0.96 0.852,1.708 1.81333,1.708 h 0.0933 c 1,-0.0547 1.76,-0.92 1.70534,-1.908 l -0.0787,-1.51867"
         style="fill:#100f0d;fill-opacity:1;fill-rule:nonzero;stroke:none;stroke-width:0.133333" />
      <path
         id="path9"
         d="m 812.40557,425.94377 h 9.412 v -27.476 c 0,-2.548 -2.15467,-4.7 -4.704,-4.7 -2.54933,0 -4.708,2.152 -4.708,4.7 z m 11.22,3.60666 h -13.02533 c -0.99734,0 -1.80267,-0.804 -1.80267,-1.80266 v -29.28 c 0,-4.50667 3.80533,-8.30933 8.316,-8.30933 4.508,0 8.31467,3.80266 8.31467,8.30933 v 29.28 c 0,0.99866 -0.804,1.80266 -1.80267,1.80266"
         style="fill:#100f0d;fill-opacity:1;fill-rule:nonzero;stroke:none;stroke-width:0.133333" />
      <path
         id="path10"
         d="m 802.46957,387.09577 c -0.25467,0 -0.37467,-0.33333 -0.37467,-0.548 0,-0.26533 0.108,-0.372 0.37467,-0.372 h 27.12 c 0.22667,0 0.56,0.11867 0.56,0.372 0,0.268 -0.29467,0.548 -0.56,0.548 z m 28.78667,-4.21467 c -0.50667,-0.19866 -1.068,-0.31866 -1.66667,-0.31866 h -27.12 c -0.77333,0 -1.48133,0.2 -2.068,0.54533 -1.15867,0.68133 -1.90667,1.93467 -1.90667,3.44 0,1.76133 0.988,3.22667 2.45334,3.84 0.468,0.20133 0.97466,0.30667 1.52133,0.30667 h 27.12 c 0.61333,0 1.18667,-0.132 1.70533,-0.38534 1.44,-0.65466 2.45467,-2.12133 2.45467,-3.76133 0,-1.66667 -1.01467,-3.06533 -2.49333,-3.66667"
         style="fill:#100f0d;fill-opacity:1;fill-rule:nonzero;stroke:none;stroke-width:0.133333" />
      <path
         id="path11"
         d="m 834.10957,430.64243 h -36.16133 c -0.26534,0 -0.54667,-0.28133 -0.54667,-0.54666 0,-0.268 0.28133,-0.548 0.54667,-0.548 h 36.16133 c 0.26533,0 0.37333,0.33333 0.37333,0.548 0,0.21333 -0.108,0.54666 -0.37333,0.54666 z m 0,-4.69333 h -36.16133 c -2.252,0 -4.15867,1.89334 -4.15867,4.14667 0,2.25333 1.90667,4.16 4.15867,4.16 h 36.16133 c 2.24,0 3.98533,-1.82667 3.98533,-4.16 0,-2.33333 -1.74533,-4.14667 -3.98533,-4.14667"
         style="fill:#100f0d;fill-opacity:1;fill-rule:nonzero;stroke:none;stroke-width:0.133333" />
      <path
         id="path12"
         d="m 810.97624,370.28244 c -0.0147,0 -0.0147,0 -0.0147,0 -0.08,0.0667 -0.15867,0.12 -0.25333,0.15866 -0.18667,0.0947 -0.372,0.20134 -0.54667,0.30667 -6.45333,3.628 -6.61333,9.05333 -6.18533,11.81467 0.0653,0.46533 0.16,0.86666 0.23866,1.15866 0.25467,0.97334 -0.31866,1.96134 -1.28,2.228 -0.15866,0.0267 -0.32,0.052 -0.46533,0.052 -0.8,0 -1.53467,-0.53333 -1.748,-1.34666 -0.0787,-0.32 -0.21333,-0.85334 -0.32,-1.54667 -0.492,-3.42533 -0.39867,-10.81333 8,-15.53333 0.21333,-0.11867 0.42667,-0.22534 0.65333,-0.34534 0.20134,-0.0947 0.40134,-0.16 0.61467,-0.17466 0.71867,-0.10534 1.46667,0.25466 1.81333,0.94666 0.41334,0.788 0.18667,1.74667 -0.50666,2.28134"
         style="fill:#100f0d;fill-opacity:1;fill-rule:nonzero;stroke:none;stroke-width:0.133333" />
      <path
         id="path13"
         d="m 809.69624,370.63844 c -0.75067,0 -1.45734,-0.476 -1.71334,-1.23067 -0.31333,-0.94133 0.19467,-1.96533 1.13467,-2.288 0.032,-0.012 2.85867,-0.992 5.012,-3.45467 0.652,-0.748 1.80667,-0.83066 2.54933,-0.16933 0.75334,0.66 0.82667,1.80267 0.16934,2.55067 -2.82267,3.22533 -6.42534,4.44533 -6.584,4.50133 -0.18267,0.0627 -0.37867,0.0907 -0.568,0.0907"
         style="fill:#100f0d;fill-opacity:1;fill-rule:nonzero;stroke:none;stroke-width:0.133333" />
      <path
         id="path14"
         d="m 821.81624,370.8171 c -0.276,0 -0.548,-0.0573 -0.80667,-0.188 -0.47867,-0.24 -4.7,-2.38933 -6.68267,-4.55733 -0.66933,-0.74 -0.61066,-1.87867 0.12667,-2.55467 0.73867,-0.65866 1.876,-0.608 2.55467,0.12134 1.29066,1.42266 4.48933,3.196 5.61333,3.75466 0.89067,0.44667 1.256,1.532 0.81067,2.42667 -0.31467,0.62933 -0.95467,0.99733 -1.616,0.99733"
         style="fill:#100f0d;fill-opacity:1;fill-rule:nonzero;stroke:none;stroke-width:0.133333" />
      <path
         id="path15"
         d="m 822.46957,369.74777 c -0.32,0.53467 -0.88,0.84133 -1.45333,0.88 h -0.22667 c -0.28133,-0.012 -0.54667,-0.092 -0.80133,-0.24 -3.94667,-2.36 -9.452,0.228 -9.50534,0.25467 -0.108,0.052 -0.21466,0.0933 -0.32133,0.10533 -0.15867,0.0533 -0.30667,0.068 -0.46533,0.068 -0.66667,0 -1.32134,-0.37467 -1.628,-1.02667 -0.13334,-0.29466 -0.18667,-0.60133 -0.172,-0.89333 0.0133,-0.0413 0.0133,-0.0947 0.0133,-0.13333 0.0787,-0.58667 0.44,-1.108 1,-1.37467 0.052,-0.0267 0.32,-0.15867 0.76,-0.33333 0.852,-0.34534 2.36,-0.852 4.172,-1.12 0.12,-0.012 0.22667,-0.0267 0.34667,-0.0533 0.89466,-0.092 1.85333,-0.14533 2.828,-0.0653 0.13333,0 0.26533,0.012 0.412,0.0387 1.32133,0.13333 2.68133,0.48 3.97333,1.188 0.14667,0.0653 0.28133,0.14533 0.42667,0.22533 0.868,0.52133 1.148,1.628 0.64133,2.48"
         style="fill:#100f0d;fill-opacity:1;fill-rule:nonzero;stroke:none;stroke-width:0.133333" />
      <path
         id="path16"
         d="m 827.66957,382.56244 h -23.69333 c -0.428,-2.76134 -0.268,-8.18667 6.18533,-11.81467 0.10667,-0.012 0.21333,-0.0533 0.32133,-0.10533 0.0533,-0.0267 5.55867,-2.61467 9.50534,-0.25467 0.25466,0.148 0.52,0.228 0.80133,0.24 1.532,0.88133 7.62667,4.828 6.88,11.93467"
         style="fill:#5fad36;fill-opacity:1;fill-rule:nonzero;stroke:none;stroke-width:0.133333" />
      <path
         id="path17"
         d="m 831.25624,382.8811 c -0.0533,0.548 -0.13334,1.10667 -0.25334,1.68134 -0.18666,0.852 -0.93466,1.43866 -1.77333,1.43866 -0.12,0 -0.24133,-0.0133 -0.37467,-0.04 -0.97333,-0.19866 -1.59866,-1.172 -1.38533,-2.14533 0.0933,-0.428 0.14533,-0.84 0.2,-1.25333 0.74667,-7.10667 -5.348,-11.05334 -6.88,-11.93467 -0.188,-0.10667 -0.29467,-0.172 -0.33333,-0.18667 -0.188,-0.092 -0.34667,-0.212 -0.48,-0.36 -0.52,-0.51866 -0.66667,-1.36 -0.30667,-2.06533 0.33333,-0.66667 1.02667,-1.04 1.732,-0.97333 0.22667,0 0.468,0.0653 0.68133,0.172 0.34534,0.17333 0.72,0.37466 1.10534,0.628 3.72133,2.28 8.828,7.53333 8.068,15.03866"
         style="fill:#100f0d;fill-opacity:1;fill-rule:nonzero;stroke:none;stroke-width:0.133333" />
      <path
         id="path18"
         d="m 815.40957,360.87977 1.524,0.18 c 0,-0.81067 -0.63333,-1.44533 -1.44533,-1.44533 -0.95467,0 -1.26,0.976 -1.26,1.44533 h 1.19866 z m 0.0787,2.34667 c -1.172,0 -2.16534,-0.99334 -2.16534,-2.16667 0,-0.99867 1.16534,-1.984 2.16534,-1.984 2.32666,0 2.352,1.90267 2.352,1.984 0,1.28 -1.24267,2.16667 -2.352,2.16667"
         style="fill:#100f0d;fill-opacity:1;fill-rule:nonzero;stroke:none;stroke-width:0.133333" />
      <path
         id="path19"
         d="m 815.48824,361.23844 c -1.05334,0 -1.084,1.13866 -1.084,1.26533 0,0.80133 0.59466,1.44667 1.084,1.44667 0.95733,0 1.25866,-0.972 1.25866,-1.44667 0,-0.81733 -0.44666,-1.26533 -1.25866,-1.26533 z m 0,3.612 c -1.184,0 -2.34934,-1.16134 -2.34934,-2.34667 0,-1.296 1.216,-2.164 2.34934,-2.164 1.41466,0 2.52266,0.94933 2.52266,2.164 0,1.23067 -1.20266,2.34667 -2.52266,2.34667"
         style="fill:#100f0d;fill-opacity:1;fill-rule:nonzero;stroke:none;stroke-width:0.133333" />
      <path
         id="path20"
         d="m 815.64957,362.87177 c -0.49733,0.012 -1.06133,0.55867 -1.06133,1.26533 0,0.71334 0.57866,1.26 1.08133,1.26 0.28267,-0.0307 0.89733,-0.504 0.89733,-1.26 0,-0.75066 -0.6,-1.228 -0.91733,-1.26533 z m 0.02,3.61067 c -1.868,0 -2.71067,-1.21734 -2.71067,-2.34534 0,-1.13466 0.84267,-2.35066 2.71067,-2.35066 1.444,0 2.52933,1.012 2.52933,2.35066 0,1.34134 -1.08533,2.34534 -2.52933,2.34534"
         style="fill:#100f0d;fill-opacity:1;fill-rule:nonzero;stroke:none;stroke-width:0.133333" />
      <path
         id="path21"
         d="m 815.48824,362.50377 c -1,0 -1.80534,-0.80267 -1.80534,-1.804 v -1.624 c 0,-0.99867 0.80534,-1.804 1.80534,-1.804 0.99866,0 1.80533,0.80533 1.80533,1.804 v 1.624 c 0,1.00133 -0.80667,1.804 -1.80533,1.804"
         style="fill:#100f0d;fill-opacity:1;fill-rule:nonzero;stroke:none;stroke-width:0.133333" />
      <path
         id="path22"
         d="m 836.0949,466.96243 h -40.14666 c -0.42667,0 -0.71867,-0.468 -0.71867,-0.89466 0,-0.30534 0.30667,-0.73334 0.71867,-0.73334 h 40.14666 c 0.42667,0 0.73334,0.428 0.73334,0.73334 0,0.42666 -0.292,0.89466 -0.73334,0.89466 z m 0,-5.24133 h -40.14666 c -2.34667,0 -4.33334,1.988 -4.33334,4.34667 0,2.48 1.948,4.508 4.33334,4.508 h 40.14666 c 2.4,0 4.348,-2.028 4.348,-4.508 0,-2.35867 -1.98666,-4.34667 -4.348,-4.34667"
         style="fill:#100f0d;fill-opacity:1;fill-rule:nonzero;stroke:none;stroke-width:0.133333" />
      <path
         id="path23"
         d="m 831.6549,461.7211 h -30.212 l 1.13334,-27.46533 h 27.47866 l 1.6,27.46533"
         style="fill:#5fad36;fill-opacity:1;fill-rule:nonzero;stroke:none;stroke-width:0.133333" />
      <path
         id="path24"
         d="m 793.60957,515.9411 c -0.63467,0 -1.09067,0.45867 -1.09067,1.084 0,0.43467 0.456,1.088 1.09067,1.088 h 44.84267 c 0.63333,0 1.092,-0.65333 1.092,-1.088 0,-0.62533 -0.45867,-1.084 -1.092,-1.084 z m 44.84267,5.77733 h -44.84267 c -2.55067,0 -4.70133,-2.14266 -4.70133,-4.69333 0,-2.636 2.064,-4.69467 4.70133,-4.69467 h 44.84267 c 2.63733,0 4.7,2.05867 4.7,4.69467 0,2.55067 -2.15067,4.69333 -4.7,4.69333"
         style="fill:#100f0d;fill-opacity:1;fill-rule:nonzero;stroke:none;stroke-width:0.133333" />
      <path
         id="path25"
         d="m 929.40157,321.05444 v 0.17466 c -0.0133,0.39867 -0.0387,0.79867 -0.0653,1.18534 -0.17466,2.65466 -0.65333,5.17466 -1.68133,7.74666 -0.092,0.25334 -0.19867,0.50667 -0.30533,0.77334 -0.17467,0.38666 -0.34667,0.77466 -0.54667,1.16133 -0.84133,1.69333 -1.948,3.42533 -3.37467,5.22533 -2.612,3.33334 -6.31866,6.93467 -11.50533,11.06667 -5.10667,4.068 -11.66667,8.65467 -20.05333,14.01467 -16.348,10.44 -25.22667,21.97333 -26.42667,34.292 -1.48133,15.29333 9.68,27 11.01334,28.348 0.08,0.08 0.13333,0.13333 0.13333,0.13333 0.72,0.69333 0.76,1.82533 0.0653,2.56 -0.34533,0.36 -0.82666,0.54667 -1.30533,0.54667 -0.45333,0 -0.89333,-0.16 -1.24,-0.48134 -0.12133,-0.11866 -0.828,-0.78533 -1.828,-1.94666 -3.74533,-4.292 -11.78667,-15.31867 -10.42667,-29.47867 1.28134,-13.48 10.72134,-25.93467 28.068,-37.02667 29.05333,-18.56 35.132,-27.08133 35.812,-37.2 0.0413,-0.32133 0.0547,-0.64 0.068,-0.96133 v -0.0387 c 0,-0.13333 0.0133,-0.28 0.0387,-0.41333 0.0133,-0.0413 0.028,-0.0813 0.04,-0.12 0,-0.0267 0,-0.068 0.028,-0.0947 0,-0.0267 0.0133,-0.0533 0.0253,-0.08 0,-0.012 0.0133,-0.0267 0.0133,-0.0387 0,0 0,-0.0147 0.0133,-0.0147 0,-0.012 0,-0.012 0.0147,-0.0267 -0.0147,-0.012 0,-0.012 0.012,-0.0267 0.0413,-0.0787 0.08,-0.14667 0.12134,-0.212 0.0133,-0.0147 0.0133,-0.0147 0.0133,-0.0147 0,-0.012 0,-0.012 0,-0.012 0.33333,-0.428 0.86533,-0.69333 1.492,-0.76133 l 0.0133,-0.0133 c 0.0547,0 0.0933,0 0.148,0.0133 0.04,0 0.0787,0 0.12,0.0147 0.0267,0 0.0387,0 0.0653,0.012 0,0 0.0147,0 0.0267,0 0.0667,0.0147 0.12134,0.0267 0.18667,0.0533 0.0547,0.0147 0.10667,0.0413 0.14667,0.0533 0.08,0.0267 0.148,0.068 0.21466,0.12133 0.012,0 0.012,0.012 0.012,0.012 0.0147,0 0.028,0 0.0413,0.0147 0.0253,0.012 0.0533,0.0267 0.08,0.052 0.052,0.0267 0.092,0.068 0.13333,0.10667 0.0387,0.0267 0.0667,0.0533 0.0787,0.08 0.0413,0.0413 0.08,0.068 0.0947,0.10666 0.04,0.0267 0.0653,0.0667 0.092,0.108 0.0147,0.012 0.0147,0.0267 0.0267,0.0387 0.0147,0.0147 0.028,0.0413 0.0413,0.068 0.0387,0.0533 0.0787,0.13333 0.10667,0.2 v 0.012 c 0.0133,0.0147 0.0133,0.0147 0.0253,0.0267 0,0 0,0 0,0.0147 0.0133,0.0387 0.0413,0.092 0.0413,0.13334 0.012,0.012 0.012,0.012 0.012,0.0267 0.0147,0.012 0.0147,0.0387 0.0147,0.0653 0,0 0,0.0133 0.0133,0.028 0,0 0,0.012 0,0.0267 0,0.012 0,0.012 0.0133,0.0267 0,0.0533 0.012,0.092 0.012,0.14533 0.0133,0.0533 0.0267,0.12 0.0267,0.17334"
         style="fill:#100f0d;fill-opacity:1;fill-rule:nonzero;stroke:none;stroke-width:0.133333" />
      <path
         id="path26"
         d="m 983.45623,425.4411 c -1.188,1.40134 -2.028,2.21334 -2.16133,2.348 -0.36,0.33334 -0.812,0.49334 -1.25333,0.49334 -0.47867,0 -0.94667,-0.18667 -1.30667,-0.54667 -0.69333,-0.72 -0.652,-1.86667 0.068,-2.56 0,0 0.052,-0.0533 0.132,-0.13333 1.32133,-1.348 12.40133,-13.05467 10.92,-28.348 -1.18533,-12.31867 -10.052,-23.852 -26.33333,-34.292 -8.78667,-5.61334 -15.56,-10.38667 -20.78667,-14.58667 -4.95867,-4.02667 -8.52,-7.53333 -11.03867,-10.8 v -0.0147 c -1.37466,-1.74533 -2.428,-3.43866 -3.25333,-5.09333 -0.18667,-0.372 -0.37467,-0.75867 -0.53333,-1.13333 -0.0933,-0.2 -0.17467,-0.39867 -0.25467,-0.61334 -1.07867,-2.64 -1.58667,-5.23866 -1.8,-7.97333 -0.0133,-0.292 -0.0267,-0.58667 -0.052,-0.87867 v -0.21333 c 0,-0.0413 0,-0.08 0.0133,-0.12 -0.0133,-0.0147 0,-0.0267 0.012,-0.0413 -0.012,-0.012 0,-0.0267 0,-0.0387 0,-0.0947 0.0133,-0.18667 0.0533,-0.28 0,-0.0147 0,-0.0267 0.0147,-0.0413 v -0.012 l 0.0133,-0.0147 v -0.012 c 0,0 0,0 0,-0.0147 v -0.012 c 0,-0.0267 0.0133,-0.0413 0.0253,-0.068 0,-0.012 0,-0.012 0,-0.012 0,-0.0147 0.0133,-0.0267 0.0133,-0.0267 0,-0.0147 0.0133,-0.0267 0.028,-0.0413 0.012,-0.0267 0.012,-0.052 0.04,-0.0787 0.0133,-0.0147 0.0133,-0.0267 0.0253,-0.0413 0.0133,-0.0267 0.0267,-0.0533 0.0413,-0.0653 0,-0.0147 0.012,-0.0413 0.0267,-0.0533 0,0 0,0 0,-0.0147 h 0.0133 v -0.012 c 0.0133,-0.0413 0.052,-0.08 0.10667,-0.12 0,-0.0147 0.0133,-0.0147 0.0133,-0.0147 0,0 0,0 0,-0.012 0.0133,-0.0267 0.0387,-0.0533 0.052,-0.068 0.0267,-0.0387 0.0547,-0.0533 0.08,-0.08 0.0133,-0.012 0.0413,-0.0387 0.068,-0.0533 l 0.0133,-0.012 c 0.0387,-0.0267 0.0653,-0.0533 0.10667,-0.0933 0.0133,0 0.0267,-0.0147 0.0387,-0.0147 0.0133,-0.012 0.0133,-0.012 0.0267,-0.0267 0,0 0,0 0.0147,0 0,-0.012 0.012,-0.012 0.0267,-0.012 l 0.0133,-0.0147 c 0.052,-0.0387 0.0933,-0.0533 0.14533,-0.08 0,0 0.0133,0 0.0267,-0.012 0.0267,-0.0147 0.0547,-0.0267 0.0933,-0.0267 0.0133,-0.0147 0.04,-0.0267 0.0547,-0.0267 0,0 0.0133,-0.0147 0.0267,-0.0147 0.012,0 0.0253,-0.012 0.0533,-0.012 0.0267,-0.0147 0.0533,-0.0147 0.0787,-0.0267 0.0133,0 0.0133,0 0.0267,0 0.0147,-0.0147 0.0147,-0.0147 0.0267,-0.0147 0.0147,0 0.0147,0 0.028,0 0.0253,-0.012 0.0667,-0.012 0.0933,-0.012 0.0267,-0.0147 0.052,-0.0147 0.092,-0.0147 0.028,-0.0133 0.0667,-0.0133 0.0933,-0.0133 0.0147,0 0.0147,0 0.0267,0 0.0147,0 0.0147,0 0.028,0 0.0133,0 0.0133,0 0.0253,0 l 0.0133,0.0133 c 0.0547,-0.0133 0.10667,0 0.16133,0 0.04,0 0.0787,0 0.12,0.0147 0.0133,0 0.0133,0 0.0267,0.012 0,0 0.012,-0.012 0.0253,0 0.21334,0.0533 0.41467,0.13334 0.588,0.228 0.012,0 0.012,0.012 0.012,0.012 0.0533,0.0413 0.10667,0.0667 0.16,0.108 0.0413,0.012 0.068,0.0387 0.0947,0.0653 0.10667,0.0947 0.18533,0.18666 0.26533,0.29466 0,0.012 0.0147,0.0267 0.0267,0.0387 0.0667,0.0947 0.12,0.18667 0.16133,0.29467 0.012,0.0387 0.0387,0.08 0.0387,0.13333 0,0 0,0.012 0.0147,0.012 v 0.0147 c 0,0.012 0,0.012 0.012,0.0267 0,0.012 0,0.012 0,0.0267 0,0.012 0.0147,0.012 0.0147,0.012 0,0 -0.0147,0 0,0.0147 v 0.012 c 0,0 0,0 0.0133,0.0133 v 0.0147 c 0,0 0,0.012 0,0.0267 0,0.012 0,0.012 0.0133,0.0267 0.012,0.0653 0.0253,0.13333 0.0253,0.21333 0.0133,0.0267 0.0133,0.052 0.0133,0.0933 v 0.012 c 0.0267,0.44 0.0547,0.868 0.0933,1.30666 0.93333,10.068 7.20133,18.61467 35.97467,36.988 17.28,11.092 26.692,23.54667 27.98666,37.03867 1.32,13.72 -6.16133,24.508 -10,29.05333"
         style="fill:#100f0d;fill-opacity:1;fill-rule:nonzero;stroke:none;stroke-width:0.133333" />
      <path
         id="path27"
         d="m 927.60023,310.09044 c -2.05866,0 -3.60666,-1.32267 -3.60666,-3.06934 0,-1.64666 1.548,-2.88533 3.60666,-2.88533 1.9,0 3.43867,1.292 3.43867,2.88533 0,1.724 -1.508,3.06934 -3.43867,3.06934"
         style="fill:#100f0d;fill-opacity:1;fill-rule:nonzero;stroke:none;stroke-width:0.133333" />
      <path
         id="path28"
         d="m 927.7869,316.05577 c -2.47333,0 -4.33333,-1.47733 -4.33333,-3.43067 0,-1.95333 1.86,-3.42933 4.33333,-3.42933 2.324,0 4.148,1.50667 4.148,3.42933 0,1.92267 -1.824,3.43067 -4.148,3.43067"
         style="fill:#100f0d;fill-opacity:1;fill-rule:nonzero;stroke:none;stroke-width:0.133333" />
      <path
         id="path29"
         d="m 927.96957,322.56644 c -2.692,0 -4.88267,-1.69867 -4.88267,-3.79734 0,-2.09333 2.19067,-3.79466 4.88267,-3.79466 2.63466,0 4.69866,1.67066 4.69866,3.79466 0,2.12934 -2.064,3.79734 -4.69866,3.79734"
         style="fill:#100f0d;fill-opacity:1;fill-rule:nonzero;stroke:none;stroke-width:0.133333" />
      <path
         id="path30"
         d="m 927.60023,307.0211 c -0.0173,0 -0.036,0 -0.0533,0 -1.00133,-0.0333 -1.78,-0.87066 -1.74933,-1.86133 l 0.18666,-5.78667 c 0.0307,-0.99733 0.95867,-1.78 1.86,-1.74933 1,0.0307 1.78,0.86667 1.748,1.86133 l -0.18666,5.78667 c -0.0307,0.97867 -0.832,1.74933 -1.80534,1.74933"
         style="fill:#100f0d;fill-opacity:1;fill-rule:nonzero;stroke:none;stroke-width:0.133333" />
      <path
         id="path31"
         d="m 939.90823,271.60244 c 0.36267,0 0.72934,0.10533 1.03867,0.32667 l 0.46,0.324 -0.14933,-0.46534 c -0.23467,-0.72666 0.0133,-1.51866 0.62266,-1.984 l 0.26,-0.20533 -0.37466,0.0133 c -0.768,0.0733 -1.536,-0.49066 -1.77867,-1.264 l -0.0787,-0.268 -0.0893,0.268 c -0.24,0.77334 -0.96533,1.33734 -1.78,1.264 l -0.192,-0.007 0.23333,0.18 c 0.62667,0.45866 0.89067,1.26533 0.64667,2.00933 l -0.1,0.30267 0.21067,-0.148 c 0.31733,-0.23467 0.69733,-0.34667 1.07066,-0.34667 z m -4.708,7.04533 c -0.37333,0 -0.74533,-0.11066 -1.06266,-0.34 -0.63067,-0.46133 -0.89867,-1.27333 -0.656,-2.02133 l 1.40666,-4.368 -3.832,-2.84133 c -0.63733,-0.46534 -0.89333,-1.296 -0.63466,-2.04 0.256,-0.74934 0.98933,-1.27067 1.76266,-1.216 l 4.59867,0.13733 1.4,-4.47867 c 0.23333,-0.756 0.93467,-1.26533 1.72533,-1.26533 v 0 c 0.79067,0 1.48667,0.51733 1.72267,1.26533 l 1.39467,4.47867 4.59333,-0.13733 c 0.80667,0 1.49467,0.46666 1.75733,1.196 0.26667,0.73866 0.024,1.564 -0.60133,2.04266 l -3.69067,2.83467 1.41334,4.396 c 0.24266,0.73733 -0.0173,1.544 -0.64267,2.00933 -0.64,0.44667 -1.49067,0.47734 -2.116,0.0187 l -3.81467,-2.68667 -3.66133,2.668 c -0.31333,0.23734 -0.69067,0.348 -1.06267,0.348"
         style="fill:#100f0d;fill-opacity:1;fill-rule:nonzero;stroke:none;stroke-width:0.133333" />
      <path
         id="path32"
         d="m 932.30957,296.90777 c -1.788,0 -3.29334,-0.16 -5.06667,-0.52 -0.12,-0.0267 -0.24,-0.0267 -0.36133,-0.0267 -0.25334,0 -0.49334,0.0533 -0.72,0.148 -0.18534,-0.428 -0.53334,-0.76133 -0.98667,-0.93466 -7.74667,-2.92 -12.75867,-10.13333 -12.75867,-18.372 0,-8.28 5.17334,-15.40133 12.572,-18.32133 -2.83866,3.52133 -4.44,7.89333 -4.44,12.548 0,11.05333 9.08,20.05333 20.25467,20.05333 2.06667,0 4.09333,-0.32133 6.01333,-0.94667 -3.628,3.98534 -8.85466,6.372 -14.50666,6.372 z m 20.78533,-12.66666 c -0.66667,-0.47867 -1.57333,-0.46667 -2.22533,0.068 -2.80134,2.292 -6.36134,3.56 -10.06667,3.56 -9.17467,0 -16.64133,-7.37467 -16.64133,-16.44 0,-5.81334 3.068,-11.12 8.17466,-14.188 0.70534,-0.42534 1.03867,-1.28 0.8,-2.06534 -0.24,-0.8 -0.88,-1.30666 -1.81466,-1.28 -12.63867,0.58667 -22.51867,10.82534 -22.51867,23.30667 0,9.75867 5.91867,18.292 15.09333,21.75866 0.46667,0.16134 0.932,0.13467 1.34667,-0.0387 0.15867,0.33333 0.412,0.61333 0.73333,0.79866 0.16,0.0947 0.34534,0.17467 0.54534,0.21334 1.068,0.21466 2.05466,0.36 3.04133,0.45333 0.88,0.08 1.77333,0.12133 2.74667,0.12133 9.38666,0 17.77333,-5.53333 21.37333,-14.10666 0.32,-0.77467 0.0787,-1.65467 -0.588,-2.16133"
         style="fill:#100f0d;fill-opacity:1;fill-rule:nonzero;stroke:none;stroke-width:0.133333" />
      <path
         id="path33"
         d="m 946.81623,290.53577 c -3.628,3.98534 -8.85466,6.372 -14.50666,6.372 -1.788,0 -3.29334,-0.16 -5.06667,-0.52 -0.12,-0.0267 -0.24,-0.0267 -0.36133,-0.0267 -0.25334,0 -0.49334,0.0533 -0.72,0.148 -0.18534,-0.428 -0.53334,-0.76133 -0.98667,-0.93466 -7.74667,-2.92 -12.75867,-10.13333 -12.75867,-18.372 0,-8.28 5.17334,-15.40133 12.572,-18.32133 -2.83866,3.52133 -4.44,7.89333 -4.44,12.548 0,11.05333 9.08,20.05333 20.25467,20.05333 2.06667,0 4.09333,-0.32133 6.01333,-0.94667"
         style="fill:#5fad36;fill-opacity:1;fill-rule:nonzero;stroke:none;stroke-width:0.133333" />
      <path
         id="path34"
         d="m 929.40157,321.05444 v 0.17466 c -0.0133,0.39867 -0.0267,0.78667 -0.052,1.17334 -0.16134,2.85333 -0.57334,5.58533 -1.44,8.372 -0.0933,0.30666 -0.20134,0.628 -0.308,0.93466 -0.17334,0.50534 -0.35867,1 -0.572,1.50534 -1.188,2.96133 -2.94667,6.04133 -5.52134,9.49466 -4,5.36 -9.94533,11.58534 -18.732,19.50534 -32.35999,29.38666 -13.69333,59 -11.05466,62.828 0.13333,0.18666 0.22667,0.30666 0.26667,0.372 0.60133,0.8 0.428,1.93466 -0.38667,2.52 -0.32,0.24133 -0.692,0.348 -1.06533,0.348 -0.548,0 -1.108,-0.24 -1.45334,-0.72 -0.0413,-0.0533 -0.68133,-0.93467 -1.588,-2.52 -4.932,-8.56 -17.89333,-37.57467 12.85467,-65.49467 4.63866,-4.18667 8.45333,-7.85333 11.57333,-11.16 10.692,-11.292 13.38667,-18.23867 13.83867,-26.23867 0.0147,-0.30666 0.028,-0.60133 0.0413,-0.908 v -0.092 c 0,-0.13333 0.0133,-0.28 0.0387,-0.41333 0.0133,-0.0413 0.028,-0.0813 0.04,-0.12 0,-0.0267 0,-0.068 0.028,-0.0947 0,-0.0267 0.0133,-0.0533 0.0253,-0.08 0,-0.012 0.0133,-0.0267 0.0133,-0.0387 0,0 0,-0.0147 0.0133,-0.0147 0,-0.012 0,-0.012 0.0147,-0.0267 -0.0147,-0.012 0,-0.012 0.012,-0.0267 0.0413,-0.0787 0.08,-0.14667 0.12134,-0.212 0.0133,-0.0147 0.0133,-0.0147 0.0133,-0.0147 0,-0.012 0,-0.012 0,-0.012 0.33333,-0.428 0.86533,-0.69333 1.492,-0.76133 l 0.0133,-0.0133 c 0.0547,0 0.0933,0 0.148,0.0133 0.04,0 0.0787,0 0.12,0.0147 0.0267,0 0.0387,0 0.0653,0.012 0,0 0.0147,0 0.0267,0 0.0667,0.0147 0.12134,0.0267 0.18667,0.0533 0.0547,0.0147 0.10667,0.0413 0.14667,0.0533 0.08,0.0267 0.148,0.068 0.21466,0.12133 0.012,0 0.012,0.012 0.012,0.012 0.0147,0 0.028,0 0.0413,0.0147 0.0253,0.012 0.0533,0.0267 0.08,0.052 0.052,0.0267 0.092,0.068 0.13333,0.10667 0.0387,0.0267 0.0667,0.0533 0.0787,0.08 0.0413,0.0413 0.08,0.068 0.0947,0.10666 0.04,0.0267 0.0653,0.0667 0.092,0.108 0.0147,0.012 0.0147,0.0267 0.0267,0.0387 0.0147,0.0147 0.028,0.0413 0.0413,0.068 0.0387,0.0533 0.0787,0.13333 0.10667,0.2 v 0.012 c 0.0133,0.0147 0.0133,0.0147 0.0253,0.0267 0,0 0,0 0,0.0147 0.0133,0.0387 0.0413,0.092 0.0413,0.13334 0.012,0.012 0.012,0.012 0.012,0.0267 0.0147,0.012 0.0147,0.0387 0.0147,0.0653 0,0 0,0.0133 0.0133,0.028 0,0 0,0.012 0,0.0267 0,0.012 0,0.012 0.0133,0.0267 0,0.0533 0.012,0.092 0.012,0.14533 0.0133,0.0533 0.0267,0.12 0.0267,0.17334"
         style="fill:#100f0d;fill-opacity:1;fill-rule:nonzero;stroke:none;stroke-width:0.133333" />
      <path
         id="path35"
         d="m 929.40157,321.04244 v 0.27866 c -0.0133,0.36134 -0.0133,0.72134 -0.0267,1.08134 -0.08,3.24 -0.34533,6.30666 -0.932,9.50533 -0.08,0.44133 -0.16133,0.88133 -0.268,1.32133 -0.15867,0.81334 -0.34667,1.62534 -0.57333,2.46534 -1.74667,6.81466 -5.10667,14.65466 -11.44,26.05333 -15.74534,28.46667 -7.292,58.05333 -5.58534,63.29467 0.15867,0.50533 0.26534,0.78533 0.27867,0.812 0.348,0.92 -0.13333,1.96133 -1.06533,2.32133 -0.21334,0.0653 -0.42667,0.10667 -0.64,0.10667 -0.72134,0 -1.41467,-0.44 -1.68,-1.17467 -0.068,-0.18533 -0.32,-0.89333 -0.69334,-2.06533 -2.44,-7.86667 -9.53333,-36.57467 6.22667,-65.04134 3.87867,-6.98533 6.59867,-12.53333 8.50533,-17.292 0.76,-1.908 1.388,-3.69333 1.92,-5.388 1.65467,-5.44 2.21467,-10.02666 2.348,-15.16 0.0133,-0.18533 0.0133,-0.36 0.0133,-0.54533 v -0.17467 c 0.0133,-0.0387 0.0133,-0.092 0.0133,-0.132 v -0.21333 c 0,-0.0413 0,-0.08 0.0133,-0.12 0,-0.0267 0,-0.0533 0.012,-0.08 0,-0.0947 0.0133,-0.18667 0.0533,-0.28 0,-0.0147 0,-0.0267 0.0147,-0.0413 -0.0147,-0.012 0,-0.012 0,-0.0267 0,-0.012 0.0133,0 0.0133,0 v -0.012 c 0,0 -0.0133,-0.0147 0,-0.0147 v -0.012 c 0,-0.0267 0.0133,-0.0413 0.0253,-0.068 0,-0.012 0,-0.012 0,-0.012 0,-0.0147 0.0133,-0.0267 0.0133,-0.0267 0,-0.0147 0.0133,-0.0267 0.028,-0.0413 0.012,-0.0267 0.012,-0.052 0.04,-0.0787 0.0253,-0.0413 0.0387,-0.08 0.0667,-0.10667 0,-0.0147 0.012,-0.0413 0.0267,-0.0533 0,0 0,0 0,-0.0147 h 0.0133 v -0.012 c 0.0133,-0.0413 0.052,-0.08 0.10667,-0.12 0,-0.0147 0.0133,-0.0147 0.0133,-0.0267 0.0133,-0.0267 0.0387,-0.0533 0.052,-0.068 0.0267,-0.0387 0.0547,-0.0533 0.08,-0.08 0.0133,-0.012 0.0413,-0.0387 0.068,-0.0533 0.052,-0.0387 0.10533,-0.08 0.15867,-0.12 0.0267,-0.0267 0.0413,-0.0387 0.068,-0.0387 l 0.0133,-0.0147 c 0.052,-0.0387 0.0933,-0.0533 0.14533,-0.08 0,0 0.0133,0 0.0267,-0.012 0.0267,-0.0147 0.0547,-0.0267 0.0933,-0.0267 0.028,-0.0267 0.0547,-0.0413 0.0813,-0.0413 0.012,0 0.0253,-0.012 0.0533,-0.012 0.0267,-0.0147 0.0533,-0.0147 0.0787,-0.0267 0.0133,0 0.0133,0 0.0267,0 0.0147,-0.0147 0.0147,-0.0147 0.0267,-0.0147 0.0147,0 0.0147,0 0.028,0 0.0253,-0.012 0.0667,-0.012 0.0933,-0.012 0.0267,-0.0147 0.052,-0.0147 0.092,-0.0147 0.028,-0.0133 0.0667,-0.0133 0.0933,-0.0133 0.0147,0 0.0147,0 0.0267,0 0.0147,0 0.0147,0 0.028,0 0.0133,0 0.0133,0 0.0253,0 0.0133,0 0.0133,0 0.0267,0 0.0547,0 0.0933,0 0.148,0.0133 0.04,0 0.0787,0 0.12,0.0147 0.0133,0 0.0133,0 0.0267,0.012 0,0 0,-0.012 0.012,0 0,0 0.0133,-0.012 0.0267,0 0.068,0.0147 0.148,0.0267 0.21333,0.0533 0.13467,0.0413 0.25333,0.0947 0.36133,0.17466 0.012,0 0.012,0.012 0.012,0.012 0.0533,0.0267 0.10667,0.0533 0.16,0.108 0.0413,0.012 0.068,0.0387 0.0947,0.0653 0.052,0.0413 0.0933,0.0947 0.132,0.13333 0.0267,0.0147 0.0413,0.0413 0.0413,0.0533 0.04,0.0267 0.0653,0.0667 0.092,0.108 0.0147,0.012 0.0147,0.0267 0.0267,0.0387 0.0667,0.0947 0.12,0.18667 0.16133,0.29467 0,0 0.012,0.012 0.012,0.0267 0.0133,0.0387 0.0267,0.08 0.0413,0.11867 0.012,0 0,0.0147 0,0.0147 0.012,0.012 0.012,0.012 0.012,0.0267 l 0.0147,0.012 c 0,0 -0.0147,0 -0.0147,0.0147 l 0.0147,0.012 c 0,0.0147 0,0.0147 0,0.0147 v 0.012 c 0,0 0,0 0.0133,0.0133 v 0.0147 c 0,0 0,0.012 0,0.0267 0,0.012 0,0.012 0.0133,0.0267 0.012,0.0653 0.0253,0.13333 0.0253,0.21333 0.0133,0.0267 0.0133,0.052 0.0133,0.0933"
         style="fill:#100f0d;fill-opacity:1;fill-rule:nonzero;stroke:none;stroke-width:0.133333" />
      <path
         id="path36"
         d="m 967.72157,425.04244 c -0.91867,1.58533 -1.56,2.46666 -1.59867,2.52 -0.34667,0.48 -0.89333,0.72 -1.45333,0.72 -0.36,0 -0.74667,-0.10667 -1.08,-0.348 -0.78667,-0.6 -0.96134,-1.732 -0.36,-2.532 0.0387,-0.0533 0.13333,-0.188 0.25333,-0.36 2.62667,-3.77467 21.52,-33.4 -11.04,-62.828 -8.77333,-7.90534 -14.72133,-14.10667 -18.72133,-19.46667 v -0.012 c -2.572,-3.45333 -4.34667,-6.548 -5.54667,-9.50667 -0.21333,-0.508 -0.39867,-1.01466 -0.57333,-1.52 -0.0933,-0.25333 -0.17334,-0.52133 -0.252,-0.77466 -0.93334,-2.90667 -1.36134,-5.74667 -1.508,-8.74667 -0.0133,-0.26533 -0.0253,-0.54533 -0.0387,-0.82667 v -0.26533 c 0,-0.0413 0,-0.08 0.0133,-0.12 -0.0133,-0.0147 0,-0.0267 0.012,-0.0413 -0.012,-0.012 0,-0.0267 0,-0.0387 0,-0.0947 0.0133,-0.18667 0.0533,-0.28 0,-0.0147 0,-0.0267 0.0147,-0.0413 v -0.012 c 0,0 0,0 0,-0.0147 0.0133,0 0.0133,0 0.0133,0 v -0.012 c 0,0 0,0 0,-0.0147 v -0.012 c 0,-0.0267 0.0133,-0.0413 0.0253,-0.068 0,-0.012 0,-0.012 0,-0.012 0,-0.0147 0.0133,-0.0267 0.0133,-0.0267 0,-0.0147 0.0133,-0.0267 0.028,-0.0413 0.012,-0.0267 0.012,-0.052 0.04,-0.0787 0.0133,-0.0147 0.0133,-0.0267 0.0253,-0.0413 0.0133,-0.0267 0.0267,-0.0533 0.0413,-0.0653 0,-0.0147 0.012,-0.0413 0.0267,-0.0533 0,0 0,0 0,-0.0147 h 0.0133 v -0.012 c 0.0133,-0.0413 0.052,-0.08 0.10667,-0.12 0,-0.0147 0.0133,-0.0147 0.0133,-0.0147 0,0 0,0 0,-0.012 0.0133,-0.0267 0.0387,-0.0533 0.052,-0.068 0.0267,-0.0387 0.0547,-0.0533 0.08,-0.08 0.0133,-0.012 0.0413,-0.0387 0.068,-0.0533 l 0.0133,-0.012 c 0.0387,-0.0267 0.0653,-0.0533 0.10667,-0.0933 0.0133,0 0.0133,0 0.0133,-0.0147 0.0133,0 0.0133,0 0.0253,0 0.0133,-0.012 0.0133,-0.012 0.0267,-0.0267 0,0 0,0 0.0147,0 0,-0.012 0.012,-0.012 0.0267,-0.012 l 0.0133,-0.0147 c 0.052,-0.0387 0.0933,-0.0533 0.14533,-0.08 0,0 0.0133,0 0.0267,-0.012 0.0267,-0.0147 0.0547,-0.0267 0.0933,-0.0267 0.0133,-0.0147 0.04,-0.0267 0.0547,-0.0267 0,0 0.0133,-0.0147 0.0267,-0.0147 0.012,0 0.0253,-0.012 0.0533,-0.012 0.0267,-0.0147 0.0533,-0.0147 0.0787,-0.0267 0,0 0.0133,0 0.0267,-0.0147 0.0147,0 0.0147,0 0.0267,0 0.0147,0 0.0147,0 0.028,0 0.0253,-0.012 0.0667,-0.012 0.0933,-0.012 0.0267,-0.0147 0.052,-0.0147 0.092,-0.0147 0.028,-0.0133 0.0667,-0.0133 0.0933,-0.0133 0.0147,0 0.0147,0 0.0267,0 0.0147,0 0.0147,0 0.028,0 0.0133,0 0.0133,0 0.0253,0 0.0133,0 0.0133,0 0.0267,0 0.0547,0 0.0933,0 0.148,0.0133 0.04,0 0.0787,0 0.12,0.0147 0.0133,0 0.0133,0 0.0267,0.012 0,0 0.012,-0.012 0.0253,0 0.21334,0.0267 0.41467,0.10667 0.588,0.228 0.012,0 0.012,0.012 0.012,0.012 0.0533,0.0267 0.10667,0.0533 0.16,0.108 0.0413,0.012 0.068,0.0387 0.0947,0.0653 0.10667,0.0947 0.18533,0.18666 0.26533,0.29466 0.0147,0.012 0.0147,0.0267 0.0267,0.0387 0.0667,0.0947 0.12,0.18667 0.16133,0.29467 0,0.012 0.012,0.012 0.012,0.0267 0.0133,0.0267 0.0267,0.0653 0.0267,0.10667 l 0.0147,0.012 v 0.0147 c 0,0.012 0,0.012 0.012,0.0267 l 0.0147,0.012 c 0,0.0147 0,0.0147 0,0.0267 0,0 -0.0147,0 0,0.0147 0.0133,0.012 0.0133,0.0253 0.0133,0.0253 v 0.0147 c 0.0133,0.0267 0.0133,0.0387 0.0133,0.0533 0.012,0.0653 0.0253,0.13333 0.0253,0.21333 0.0133,0.0267 0.0133,0.052 0.0133,0.0933 v 0.18666 c 0.0267,0.38667 0.0413,0.75867 0.068,1.14667 0.47866,7.77333 3.14533,14.6 13.26533,25.44 3.24133,3.452 7.21333,7.30667 12.12,11.732 30.90667,27.92 17.828,56.93467 12.86667,65.49467"
         style="fill:#100f0d;fill-opacity:1;fill-rule:nonzero;stroke:none;stroke-width:0.133333" />
      <path
         id="path37"
         d="m 948.60157,425.04244 c -0.35867,1.172 -0.61334,1.892 -0.67867,2.06533 -0.268,0.73467 -0.94667,1.17467 -1.69333,1.17467 -0.2,0 -0.41334,-0.0267 -0.628,-0.10667 -0.932,-0.33333 -1.41334,-1.38667 -1.06534,-2.32133 0.012,-0.0267 0.10667,-0.30667 0.26667,-0.812 1.68,-5.24134 9.98667,-34.828 -5.76133,-63.29467 -6.32,-11.39867 -9.692,-19.23867 -11.44,-26.05333 -0.21334,-0.84 -0.41334,-1.66667 -0.572,-2.48 -0.0813,-0.372 -0.16,-0.74667 -0.22667,-1.11867 -0.628,-3.348 -0.89333,-6.53333 -0.97467,-9.92 -0.012,-0.29467 -0.012,-0.57467 -0.0253,-0.86667 v -0.21333 c 0,-0.0413 0,-0.08 0.0133,-0.12 0,-0.0267 0,-0.0533 0.012,-0.08 0,-0.0947 0.0133,-0.18667 0.0533,-0.28 0,-0.0147 0,-0.0267 0.0147,-0.0413 -0.0147,-0.012 0,-0.012 0,-0.0267 0,-0.012 0.0133,0 0.0133,0 v -0.012 c 0,0 -0.0133,-0.0147 0,-0.0147 v -0.012 c 0,-0.0267 0.0133,-0.0413 0.0253,-0.068 0,-0.012 0,-0.012 0,-0.012 0,-0.0147 0.0133,-0.0267 0.0133,-0.0267 0,-0.0147 0.0133,-0.0267 0.028,-0.0413 0.012,-0.0267 0.012,-0.052 0.04,-0.0787 0.0253,-0.0413 0.0387,-0.08 0.0667,-0.10667 0,-0.0147 0.012,-0.0413 0.0267,-0.0533 0,0 0,0 0,-0.0147 h 0.0133 v -0.012 c 0.0133,-0.0413 0.052,-0.08 0.10667,-0.12 0,-0.0147 0.0133,-0.0147 0.0133,-0.0267 0.0133,-0.0267 0.0387,-0.0533 0.052,-0.068 0.0267,-0.0387 0.0547,-0.0533 0.08,-0.08 0.0133,-0.012 0.0413,-0.0387 0.068,-0.0533 0.04,-0.0387 0.0787,-0.0653 0.12,-0.10533 0.0133,0 0.0133,0 0.0133,-0.0147 0.0387,-0.012 0.052,-0.0387 0.0933,-0.0387 l 0.0133,-0.0147 c 0.052,-0.0387 0.0933,-0.0533 0.14533,-0.08 0,0 0.0133,0 0.0267,-0.012 0.0267,-0.0147 0.0547,-0.0267 0.0933,-0.0267 0.028,-0.0267 0.0547,-0.0413 0.0813,-0.0413 0.012,0 0.0253,-0.012 0.0533,-0.012 0.0267,-0.0147 0.0533,-0.0147 0.0787,-0.0267 0.0133,0 0.0133,0 0.0267,0 v -0.0147 c 0.0147,0 0.0147,0 0.0267,0 0.0147,0 0.0147,0 0.028,0 0.0253,-0.012 0.0667,-0.012 0.0933,-0.012 0.0267,-0.0147 0.052,-0.0147 0.092,-0.0147 0.028,-0.0133 0.0667,-0.0133 0.0933,-0.0133 0.0147,0 0.0147,0 0.0267,0 0.0147,0 0.0147,0 0.028,0 0.0133,0 0.0133,0 0.0253,0 l 0.0133,0.0133 c 0.73467,0.08 1.42667,0.53466 1.69467,1.228 0,0.012 0.012,0.0387 0.012,0.0533 0,0.012 0,0.012 0.0147,0.0267 v 0.012 c 0,0 0,0 0.0133,0.0133 v 0.0147 c 0,0 0,0.012 0,0.0267 0,0.012 0,0.012 0.0133,0.0267 0.012,0.0653 0.0253,0.13333 0.0253,0.21333 0.0133,0.0267 0.0133,0.052 0.0133,0.0933 v 0.27866 c 0.0147,0.36134 0.0267,0.70667 0.0413,1.06667 0.14667,4.94667 0.69333,9.40133 2.25333,14.61333 v 0.0147 c 0.54667,1.8 1.21334,3.69333 2.02534,5.72 v 0.012 c 1.90666,4.76133 4.61466,10.28 8.48133,17.25333 15.74533,28.45467 8.81333,57.16 6.39867,65.04134"
         style="fill:#100f0d;fill-opacity:1;fill-rule:nonzero;stroke:none;stroke-width:0.133333" />
      <path
         id="path38"
         d="m 911.9229,348.38777 c -3.12,3.30667 -6.93467,6.97333 -11.57333,11.16 -30.748,27.92 -17.78667,56.93467 -12.85467,65.49467 h -11.03866 c -1.33334,-1.348 -12.49467,-13.05467 -11.01334,-28.348 1.2,-12.31867 10.07867,-23.852 26.42667,-34.292 8.38666,-5.36 14.94666,-9.94667 20.05333,-14.01467"
         style="fill:#5fad36;fill-opacity:1;fill-rule:nonzero;stroke:none;stroke-width:0.133333" />
      <path
         id="path39"
         d="m 944.8029,425.04244 h -34.22667 c -1.70666,-5.24134 -10.16,-34.828 5.58534,-63.29467 6.33333,-11.39867 9.69333,-19.23867 11.44,-26.05333 1.748,6.81466 5.12,14.65466 11.44,26.05333 15.748,28.46667 7.44133,58.05333 5.76133,63.29467"
         style="fill:#5fad36;fill-opacity:1;fill-rule:nonzero;stroke:none;stroke-width:0.133333" />
      <path
         id="path40"
         d="m 978.9349,425.04244 h -11.21333 c 4.96133,-8.56 18.04,-37.57467 -12.86667,-65.49467 -4.90667,-4.42533 -8.87867,-8.28 -12.12,-11.732 5.22667,4.2 12,8.97333 20.78667,14.58667 16.28133,10.44 25.148,21.97333 26.33333,34.292 1.48133,15.29333 -9.59867,27 -10.92,28.348"
         style="fill:#5fad36;fill-opacity:1;fill-rule:nonzero;stroke:none;stroke-width:0.133333" />
      <path
         id="path41"
         d="m 991.25623,435.8811 c 0,1 -0.81333,1.80133 -1.8,1.80133 -0.85466,0 -1.57466,-0.57466 -1.76,-1.388 l -0.0133,-0.0533 c -0.028,-0.10667 -0.04,-0.24 -0.04,-0.36 0,-3.92 -3.22667,-7.22667 -7.05333,-7.22667 H 876.25624 c -3.828,0 -7.068,3.30667 -7.068,7.22667 0,0.10667 -0.0133,0.2 -0.0267,0.29467 l -0.012,0.0653 c -0.16133,0.828 -0.89333,1.44133 -1.76133,1.44133 -1,0 -1.812,-0.80133 -1.812,-1.80133 0,-0.292 0.0133,-0.572 0.0387,-0.86533 0,-0.04 0,-0.0813 0.0133,-0.108 0.37466,-4.05334 3.04133,-7.532 6.65333,-9.05333 1.22667,-0.52 2.57333,-0.812 3.97467,-0.812 h 104.33333 c 1,0 1.95866,0.13333 2.86666,0.39866 4.19867,1.17467 7.34667,4.92 7.74667,9.45467 0.012,0.0267 0.012,0.0653 0.012,0.10533 0.028,0.29333 0.0413,0.588 0.0413,0.88"
         style="fill:#100f0d;fill-opacity:1;fill-rule:nonzero;stroke:none;stroke-width:0.133333" />
      <path
         id="path42"
         d="m 995.05757,538.71177 c -0.95734,0 -1.74934,-0.744 -1.804,-1.70534 l -5.60534,-101.57066 c -0.0587,-0.99734 0.70667,-1.848 1.704,-1.90134 1.03334,-0.0507 1.848,0.712 1.90134,1.704 l 5.60933,101.57067 c 0.0547,0.99867 -0.70933,1.84533 -1.708,1.90267 -0.028,0 -0.068,0 -0.0973,0"
         style="fill:#100f0d;fill-opacity:1;fill-rule:nonzero;stroke:none;stroke-width:0.133333" />
      <path
         id="path43"
         d="m 862.8709,541.96243 c -0.0267,0 -0.052,0 -0.0827,0 -0.992,-0.044 -1.768,-0.88666 -1.72134,-1.88533 l 4.51334,-104.81867 c 0.0427,-0.968 0.844,-1.724 1.80533,-1.724 0.0267,0 0.0453,0 0.0787,0 0.99466,0.04 1.77066,0.88667 1.724,1.884 l -4.516,104.81734 c -0.04,0.97066 -0.84134,1.72666 -1.80134,1.72666"
         style="fill:#100f0d;fill-opacity:1;fill-rule:nonzero;stroke:none;stroke-width:0.133333" />
      <path
         id="path44"
         d="m 882.7589,581.0011 c -1,0 -1.804,-0.80534 -1.804,-1.804 v -95.964 c 0.003,-0.36533 1.108,-33.544 48.576,-45.128 0.29067,-0.076 0.57867,-0.076 0.86667,0 0.46,0.11467 46.14533,11.96667 48.73866,50.788 0.064,0.99333 -0.68933,1.85467 -1.684,1.92533 -0.94533,-0.036 -1.864,-0.696 -1.924,-1.688 -2.28,-34.252 -41.11333,-46.14533 -45.58666,-47.40533 -44.34933,11.02267 -45.37333,41.23467 -45.37867,41.53867 v 95.93333 c 0,0.99866 -0.80533,1.804 -1.804,1.804"
         style="fill:#100f0d;fill-opacity:1;fill-rule:nonzero;stroke:none;stroke-width:0.133333" />
      <path
         id="path45"
         d="m 1064.6549,570.41576 -2.6533,-48.15999 -0.1987,-3.60134 -0.12,-2.172 -0.2,-3.61333 -2.308,-41.748 -0.1053,-1.90667 c -0.053,-0.98666 -1.028,-1.70666 -1.908,-1.70666 -0.9867,0.0533 -1.7587,0.908 -1.7054,1.908 l 0.092,1.70533 2.308,41.748 0.1987,3.61333 0.12,2.172 0.2,3.61334 2.5347,45.53466 0.16,3 c 0.053,0.96 0.84,1.70533 1.8,1.70533 h 0.093 c 1,-0.0533 1.7587,-0.90666 1.7053,-1.90666 z m -42.0253,-102.90799 h -0.093 c -0.9466,0 -1.7466,0.76 -1.8,1.72 l -0.081,1.89333 -1.7987,41.748 -0.16,3.61333 -0.095,2.172 -0.16,3.61334 -0.3334,7.84 -0.079,1.84 c -0.041,1 0.732,1.84 1.72,1.88 h 0.079 c 0.748,0 1.4,-0.452 1.6667,-1.10667 0.081,-0.18533 0.1347,-0.4 0.148,-0.61333 l 0.079,-1.77334 0.068,-1.58533 0.28,-6.48133 0.1586,-3.61334 0.093,-2.172 0.148,-3.61333 1.7986,-41.748 0.081,-1.72 c 0.039,-1 -0.7347,-1.85333 -1.72,-1.89333 z m 35.9853,-5.24 -1.6133,-27.47867 -0.1067,-1.908 c -0.053,-0.95867 -0.8533,-1.69333 -1.8,-1.69333 h -0.1067 c -1,0.0533 -1.76,0.908 -1.692,1.908 l 0.092,1.69333 1.6,27.47867 0.1067,1.72 c 0.055,0.97466 0.8533,1.708 1.8,1.708 h 0.1067 c 1,-0.0533 1.76,-0.92134 1.7066,-1.908 z m -34.3587,-31.08 h -0.028 c -1.0533,0 -1.8253,0.73466 -1.8533,1.72 l -0.079,1.88133 -1.1213,27.47867 -0.067,1.548 c -0.053,1 0.72,1.83866 1.72,1.88 h 0.081 c 0.96,0 1.7733,-0.76134 1.7986,-1.73334 l 0.067,-1.69466 1.1347,-27.47867 0.067,-1.73467 c 0.053,-0.98533 -0.7333,-1.84 -1.72,-1.86666 z m 32.3734,-4.70533 -2,-35.628 -0.081,-1.52 c -0.053,-0.95867 -0.84,-1.70667 -1.7986,-1.70667 h -26.588 c -0.972,0 -1.7734,0.76 -1.812,1.73333 l -0.068,1.57334 -1.492,35.548 -0.068,1.56 c -0.039,0.99999 0.7346,1.82666 1.7346,1.87999 0.972,-0.10666 1.84,-0.73466 1.8787,-1.73466 l 0.068,-1.70533 1.4787,-35.24134 h 23.148 l 1.9866,35.24134 0.092,1.732 c 0.053,0.96133 0.84,1.70799 1.8014,1.70799 h 0.1066 c 0.9854,-0.068 1.7587,-0.92133 1.692,-1.90666 l -0.079,-1.53333"
         style="fill:#100f0d;fill-opacity:1;fill-rule:nonzero;stroke:none;stroke-width:0.133333" />
      <path
         id="path46"
         d="m 1035.7376,426.48244 h 9.412 v -27.468 c 0,-2.49334 -2.112,-4.52134 -4.704,-4.52134 -2.5894,0 -4.708,2.028 -4.708,4.52134 z m 11.2133,3.60799 h -13.016 c -0.9987,0 -1.804,-0.80666 -1.804,-1.80399 v -29.272 c 0,-4.48267 3.7267,-8.128 8.3147,-8.128 4.584,0 8.3093,3.64533 8.3093,8.128 v 29.272 c 0,0.99733 -0.8027,1.80399 -1.804,1.80399"
         style="fill:#100f0d;fill-opacity:1;fill-rule:nonzero;stroke:none;stroke-width:0.133333" />
      <path
         id="path47"
         d="m 1025.8029,387.62777 c -0.2547,0 -0.3747,-0.31867 -0.3747,-0.54667 0,-0.26533 0.108,-0.36 0.3747,-0.36 h 27.12 c 0.2267,0 0.5467,0.10667 0.5467,0.36 0,0.268 -0.28,0.54667 -0.5467,0.54667 z m 28.7733,-4.19867 c -0.5066,-0.21466 -1.068,-0.32133 -1.6533,-0.32133 h -27.12 c -0.8267,0 -1.5747,0.22667 -2.188,0.61333 -1.092,0.69334 -1.7867,1.92134 -1.7867,3.36 0,1.76134 0.988,3.24 2.4534,3.85334 0.468,0.2 0.9746,0.30666 1.5213,0.30666 h 27.12 c 0.6,0 1.172,-0.13333 1.7067,-0.38666 1.4253,-0.66667 2.4533,-2.11867 2.4533,-3.77334 0,-1.66666 -1.028,-3.06533 -2.5067,-3.652"
         style="fill:#100f0d;fill-opacity:1;fill-rule:nonzero;stroke:none;stroke-width:0.133333" />
      <path
         id="path48"
         d="m 1021.2749,430.09043 c -0.264,0 -0.5413,0.28667 -0.5413,0.55467 0,0.26267 0.2773,0.53733 0.5413,0.53733 h 36.1707 c 0.2506,0 0.3666,-0.316 0.3666,-0.53733 0,-0.22533 -0.116,-0.55467 -0.3666,-0.55467 z m 36.1707,4.70134 h -36.1707 c -2.2493,0 -4.152,-1.89734 -4.152,-4.14667 0,-2.26 1.9027,-4.16266 4.152,-4.16266 h 36.1707 c 2.232,0 3.9773,1.83066 3.9773,4.16266 0,2.32267 -1.7453,4.14667 -3.9773,4.14667"
         style="fill:#100f0d;fill-opacity:1;fill-rule:nonzero;stroke:none;stroke-width:0.133333" />
      <path
         id="path49"
         d="m 1034.3496,370.7891 c -0.081,0.0533 -0.1747,0.11867 -0.2667,0.172 -0.2133,0.12 -0.428,0.24134 -0.6267,0.348 -0.015,0.012 -0.015,0.012 -0.028,0.012 -6.0786,3.61334 -6.5866,8.80134 -6.2533,11.78667 0.053,0.48133 0.1213,0.908 0.2,1.25333 0.2147,0.97334 -0.412,1.93334 -1.3867,2.148 -0.132,0.0267 -0.252,0.0387 -0.3733,0.0387 -0.84,0 -1.5853,-0.58667 -1.7733,-1.42533 -0.067,-0.36 -0.1587,-0.84 -0.2267,-1.40134 -0.4253,-3.572 -0.079,-10.81333 8.0933,-15.56 -0.012,-0.012 0,-0.0267 0.013,-0.0267 0.2013,-0.11867 0.4146,-0.22667 0.628,-0.34534 0.24,-0.12133 0.492,-0.2 0.7453,-0.21466 0.68,-0.0533 1.3613,0.29466 1.708,0.93466 0.4253,0.78534 0.2133,1.732 -0.4533,2.28"
         style="fill:#100f0d;fill-opacity:1;fill-rule:nonzero;stroke:none;stroke-width:0.133333" />
      <path
         id="path50"
         d="m 1033.0296,371.1771 c -0.744,0 -1.4387,-0.46 -1.7014,-1.20533 -0.3346,-0.93467 0.156,-1.96533 1.0947,-2.30667 0.028,-0.007 2.7267,-1 5.084,-3.50266 0.6827,-0.72134 1.816,-0.75734 2.5547,-0.076 0.7266,0.68133 0.7626,1.82266 0.076,2.556 -2.9854,3.17733 -6.3707,4.38266 -6.512,4.43466 -0.1947,0.0667 -0.3974,0.1 -0.596,0.1"
         style="fill:#100f0d;fill-opacity:1;fill-rule:nonzero;stroke:none;stroke-width:0.133333" />
      <path
         id="path51"
         d="m 1045.1496,371.36377 c -0.2747,0 -0.5494,-0.0587 -0.8094,-0.18667 -0.4773,-0.244 -4.7,-2.38933 -6.6773,-4.56 -0.6773,-0.73066 -0.62,-1.87866 0.1173,-2.552 0.724,-0.66666 1.8854,-0.61733 2.548,0.12 1.2947,1.42134 4.5027,3.19467 5.6267,3.75334 0.8947,0.448 1.2573,1.53066 0.8147,2.424 -0.3267,0.63333 -0.956,1.00133 -1.62,1.00133"
         style="fill:#100f0d;fill-opacity:1;fill-rule:nonzero;stroke:none;stroke-width:0.133333" />
      <path
         id="path52"
         d="m 1045.8029,370.29444 c -0.3333,0.53333 -0.9213,0.84 -1.5067,0.86666 -0.068,0.0147 -0.1346,0 -0.2013,-0.012 -0.2667,-0.0147 -0.5333,-0.0947 -0.7733,-0.22666 -3.9467,-2.33334 -9.452,0.22666 -9.5054,0.26533 -0.12,0.0533 -0.24,0.0947 -0.36,0.12133 -0.015,0.012 -0.015,0.012 -0.028,0.012 -0.132,0.028 -0.2666,0.04 -0.3986,0.04 -0.6667,0 -1.3214,-0.37333 -1.6267,-1.012 -0.1067,-0.22666 -0.16,-0.45333 -0.16,-0.68133 -0.015,-0.052 -0.015,-0.0933 -0.015,-0.132 0.015,-0.66667 0.3867,-1.29467 1.0147,-1.60133 0.053,-0.0267 0.3587,-0.172 0.852,-0.36 0.868,-0.34534 2.3467,-0.82667 4.108,-1.08 0.1067,-0.012 0.2133,-0.0267 0.3333,-0.0533 0.88,-0.10666 1.8387,-0.14666 2.7987,-0.0653 0.1347,0 0.2667,0.012 0.3867,0.0267 1.3333,0.13333 2.6946,0.47866 4,1.172 0.148,0.068 0.2946,0.16133 0.44,0.24133 0.868,0.50533 1.148,1.61333 0.6413,2.47867"
         style="fill:#100f0d;fill-opacity:1;fill-rule:nonzero;stroke:none;stroke-width:0.133333" />
      <path
         id="path53"
         d="m 1050.9882,383.10777 h -23.8133 c -0.3333,-2.98533 0.1747,-8.17333 6.2533,-11.78667 0.013,0 0.013,0 0.028,-0.012 0.12,-0.0267 0.24,-0.068 0.36,-0.12133 0.053,-0.0387 5.5587,-2.59867 9.5054,-0.26533 0.24,0.132 0.5066,0.212 0.7733,0.22666 1.4813,0.83867 7.6547,4.812 6.8933,11.95867"
         style="fill:#5fad36;fill-opacity:1;fill-rule:nonzero;stroke:none;stroke-width:0.133333" />
      <path
         id="path54"
         d="m 1054.5762,383.4291 c -0.053,0.54667 -0.1346,1.10667 -0.2546,1.67867 -0.172,0.85333 -0.9334,1.44 -1.76,1.44 -0.1334,0 -0.252,-0.012 -0.372,-0.0387 -0.9867,-0.2 -1.6,-1.17466 -1.4,-2.148 0.092,-0.42666 0.1586,-0.84 0.1986,-1.25333 0.7614,-7.14667 -5.412,-11.12 -6.8933,-11.95867 -0.16,-0.0947 -0.2667,-0.148 -0.3053,-0.16133 -0.188,-0.092 -0.348,-0.21333 -0.48,-0.36 -0.52,-0.532 -0.68,-1.36 -0.3214,-2.06533 0.3334,-0.66667 1.0414,-1.02667 1.7334,-0.988 0.2266,0 0.468,0.068 0.6813,0.17333 0.3467,0.17467 0.72,0.38667 1.1053,0.61333 3.72,2.30667 8.8414,7.56134 8.068,15.068"
         style="fill:#100f0d;fill-opacity:1;fill-rule:nonzero;stroke:none;stroke-width:0.133333" />
      <path
         id="path55"
         d="m 1038.7429,361.4211 1.5173,0.184 c 0,-0.824 -0.62,-1.44533 -1.4386,-1.44533 -1.0334,0 -1.2654,1.068 -1.2654,1.44533 h 1.2054 z m 0.079,2.348 c -1.176,0 -2.1707,-0.988 -2.1707,-2.164 0,-0.996 1.1733,-1.99066 2.1707,-1.99066 2.3213,0 2.3453,1.90933 2.3453,1.99066 0,1.39734 -1.3853,2.164 -2.3453,2.164"
         style="fill:#100f0d;fill-opacity:1;fill-rule:nonzero;stroke:none;stroke-width:0.133333" />
      <path
         id="path56"
         d="m 1038.8216,361.78644 c -0.5134,0 -1.0867,0.53733 -1.0867,1.25866 0,0.8 0.5987,1.44534 1.0867,1.44534 0.596,0 1.2586,-0.58934 1.2586,-1.44534 0,-0.64 -0.6186,-1.25866 -1.2586,-1.25866 z m 0,3.61066 c -1.364,0 -2.3494,-0.98666 -2.3494,-2.352 0,-1.21333 1.028,-2.16533 2.3494,-2.16533 1.416,0 2.524,0.952 2.524,2.16533 0,1.32 -1.108,2.352 -2.524,2.352"
         style="fill:#100f0d;fill-opacity:1;fill-rule:nonzero;stroke:none;stroke-width:0.133333" />
      <path
         id="path57"
         d="m 1038.9776,363.41044 c -0.496,0.0147 -1.06,0.55866 -1.06,1.26533 0,0.71333 0.5773,1.26267 1.0773,1.26267 0.2867,-0.0293 0.9013,-0.50667 0.9013,-1.26267 0,-0.74933 -0.604,-1.228 -0.9186,-1.26533 z m 0.017,3.61066 c -1.8653,0 -2.7107,-1.21466 -2.7107,-2.34533 0,-1.12933 0.8454,-2.344 2.7107,-2.344 1.444,0 2.528,1.00533 2.528,2.344 0,1.34 -1.084,2.34533 -2.528,2.34533"
         style="fill:#100f0d;fill-opacity:1;fill-rule:nonzero;stroke:none;stroke-width:0.133333" />
      <path
         id="path58"
         d="m 1038.8216,363.0451 c -0.9974,0 -1.8027,-0.80533 -1.8027,-1.80666 v -1.624 c 0,-0.99734 0.8053,-1.804 1.8027,-1.804 0.9986,0 1.8053,0.80666 1.8053,1.804 v 1.624 c 0,1.00133 -0.8067,1.80666 -1.8053,1.80666"
         style="fill:#100f0d;fill-opacity:1;fill-rule:nonzero;stroke:none;stroke-width:0.133333" />
      <path
         id="path59"
         d="m 1059.4282,467.50777 h -40.1466 c -0.412,0 -0.72,-0.42534 -0.72,-0.72 0,-0.44 0.2946,-0.90667 0.72,-0.90667 h 40.1466 c 0.4414,0 0.7334,0.46667 0.7334,0.90667 0,0.29466 -0.3054,0.72 -0.7334,0.72 z m 0,-5.24 h -40.1466 c -2.3867,0 -4.3334,2.028 -4.3334,4.52 0,2.348 1.9867,4.33333 4.3334,4.33333 h 40.1466 c 2.3614,0 4.3467,-1.98533 4.3467,-4.33333 0,-2.492 -1.9467,-4.52 -4.3467,-4.52"
         style="fill:#100f0d;fill-opacity:1;fill-rule:nonzero;stroke:none;stroke-width:0.133333" />
      <path
         id="path60"
         d="m 1061.8029,518.65443 h -44.868 c -0.6253,0 -1.0933,-0.452 -1.0933,-1.09333 0,-0.62667 0.468,-1.07867 1.0933,-1.07867 h 44.8547 c 0.6266,0 1.08,0.452 1.08,1.07867 0,0.64133 -0.4534,1.08133 -1.0667,1.09333 z m -0.013,-5.78533 h -44.8547 c -2.6387,0 -4.692,2.06533 -4.692,4.692 0,2.64133 2.0533,4.70667 4.692,4.70667 h 44.8547 c 0.067,0 0.1453,0 0.212,-0.012 2.5346,-0.0947 4.4813,-2.12 4.4813,-4.69467 0,-2.62667 -2.0547,-4.692 -4.6933,-4.692"
         style="fill:#100f0d;fill-opacity:1;fill-rule:nonzero;stroke:none;stroke-width:0.133333" />
      <path
         id="path61"
         d="m 1057.8562,512.8691 h -35.3866 l 1.7986,-41.748 h 31.28 l 2.308,41.748"
         style="fill:#5fad36;fill-opacity:1;fill-rule:nonzero;stroke:none;stroke-width:0.133333" />
      <path
         id="path62"
         d="m 1007.1669,550.63577 c -7.676,0 -13.91333,-6.156 -13.91333,-13.728 0,-0.996 0.80533,-1.80534 1.804,-1.80534 0.99733,0 1.80533,0.80934 1.80533,1.80534 0,5.58 4.6267,10.12133 10.304,10.12133 5.4093,0 9.652,-4.248 10.3187,-10.32 l 0.728,-7.74 c 0.093,-0.992 0.968,-1.772 1.964,-1.63067 0.996,0.092 1.7253,0.976 1.6346,1.96667 l -0.7253,7.77067 c -0.8693,7.87333 -6.7253,13.56 -13.92,13.56"
         style="fill:#100f0d;fill-opacity:1;fill-rule:nonzero;stroke:none;stroke-width:0.133333" />
      <path
         id="path63"
         d="m 782.2109,583.71043 c -1,0 -1.80533,-0.80533 -1.80533,-1.80133 0,-0.99867 0.80533,-1.80534 1.80533,-1.80534 6.28134,0 11.39867,-5.112 11.39867,-11.38933 v -3.072 c 0,-1.00133 0.80667,-1.808 1.80533,-1.808 0.99734,0 1.80267,0.80667 1.80267,1.808 v 3.072 c 0,8.27467 -6.728,14.996 -15.00667,14.996"
         style="fill:#100f0d;fill-opacity:1;fill-rule:nonzero;stroke:none;stroke-width:0.133333" />
      <path
         id="path64"
         d="m 850.20557,559.49443 c -7.676,0 -13.92533,-6.23866 -13.92533,-13.91733 0,-0.99733 0.808,-1.804 1.81066,-1.804 0.99467,0 1.8,0.80667 1.8,1.804 0,5.684 4.62534,10.30667 10.31467,10.30667 6.01333,0 9.74533,-5.28134 10.32,-10.50534 l 0.72,-7.73866 c 0.0907,-0.98934 0.99733,-1.728 1.964,-1.62934 0.992,0.0907 1.724,0.97334 1.63067,1.964 l -0.71867,7.77067 c -0.88133,7.984 -6.736,13.74933 -13.916,13.74933"
         style="fill:#100f0d;fill-opacity:1;fill-rule:nonzero;stroke:none;stroke-width:0.133333" />
      <path
         id="path65"
         d="m 1069.9242,582.44376 c -0.3066,0 -0.608,-0.072 -0.8853,-0.22533 -5.2987,-2.98933 -8.344,-8.32933 -8.1587,-14.284 0.033,-0.99867 1.0107,-1.772 1.864,-1.74933 0.996,0.032 1.7774,0.86266 1.7454,1.86 -0.14,4.58266 2.2213,8.70933 6.3226,11.024 0.8654,0.488 1.176,1.592 0.6867,2.46133 -0.336,0.58667 -0.952,0.91333 -1.5747,0.91333"
         style="fill:#100f0d;fill-opacity:1;fill-rule:nonzero;stroke:none;stroke-width:0.133333" />
      <path
         id="path66"
         d="m 1194.1162,614.81843 c -34.7013,0.007 -66.9973,-6.54933 -91.4906,-17.72 -102.7867,-46.72533 -134.35203,-47.92933 -198.65203,-7.692 -39.224,24.36 -77.42133,30.56133 -102.15467,16.59467 -20.116,-11.35467 -30.52133,-35.25867 -30.08933,-69.11867 0.27333,-26.22 -6.56133,-45.10933 -20.32133,-56.136 -20.27867,-16.24666 -49.148,-9.74266 -49.428,-9.67066 -0.99867,0.212 -1.94533,-0.37867 -2.176,-1.34534 -0.224,-0.97333 0.37867,-1.94533 1.34533,-2.176 1.24534,-0.29066 30.82267,-6.99466 52.49867,10.352 14.684,11.756 21.98266,31.616 21.692,59.02 -0.41467,32.46 9.356,55.25867 28.25866,65.92933 23.57334,13.31467 60.39334,7.132 98.45733,-16.51866 64.96934,-40.65333 98.96797,-39.388 202.06797,7.47733 72.416,33.01467 214.224,25.092 281.112,-75.61733 0.5574,-0.84133 1.6827,-1.05333 2.504,-0.50933 0.8294,0.55333 1.0627,1.676 0.508,2.508 -45.3533,68.29199 -124.5733,94.62266 -194.132,94.62266"
         style="fill:#100f0d;fill-opacity:1;fill-rule:nonzero;stroke:none;stroke-width:0.133333" />
    </g>
  </g>
</svg>
